<svg width="25" height="24" viewBox="0 0 25 24" fill="none" xmlns="http://www.w3.org/2000/svg">
<path d="M18.7754 13V11H22.7754V13H18.7754ZM19.9754 20L16.7754 17.6L17.9754 16L21.1754 18.4L19.9754 20ZM17.9754 8L16.7754 6.4L19.9754 4L21.1754 5.6L17.9754 8ZM5.77539 19V15H4.77539C4.22539 15 3.75456 14.8042 3.36289 14.4125C2.97122 14.0208 2.77539 13.55 2.77539 13V11C2.77539 10.45 2.97122 9.97917 3.36289 9.5875C3.75456 9.19583 4.22539 9 4.77539 9H8.77539L13.7754 6V18L8.77539 15H7.77539V19H5.77539ZM14.7754 15.35V8.65C15.2254 9.05 15.5879 9.5375 15.8629 10.1125C16.1379 10.6875 16.2754 11.3167 16.2754 12C16.2754 12.6833 16.1379 13.3125 15.8629 13.8875C15.5879 14.4625 15.2254 14.95 14.7754 15.35Z" fill="black"/>
</svg>
