<svg width="24" height="24" viewBox="0 0 24 24" fill="none" xmlns="http://www.w3.org/2000/svg">
<path d="M14.43 16.9198H12.14C11.73 16.9198 11.39 16.5798 11.39 16.1698C11.39 15.7598 11.73 15.4198 12.14 15.4198H14.43C14.86 15.4198 15.21 15.0698 15.21 14.6398C15.21 14.2098 14.86 13.8598 14.43 13.8598H12.14C11.9 13.8598 11.67 13.7398 11.53 13.5498C11.39 13.3598 11.35 13.0998 11.43 12.8698L12.19 10.5798C12.29 10.2698 12.58 10.0698 12.9 10.0698H15.96C16.37 10.0698 16.71 10.4098 16.71 10.8198C16.71 11.2298 16.37 11.5698 15.96 11.5698H13.44L13.18 12.3598H14.43C15.69 12.3598 16.71 13.3798 16.71 14.6398C16.71 15.8998 15.68 16.9198 14.43 16.9198Z" fill="#292D32"/>
<path d="M9.54001 16.9198C9.13001 16.9198 8.79001 16.5798 8.79001 16.1698V12.7798L8.60001 12.9998C8.32001 13.3098 7.85001 13.3298 7.54001 13.0598C7.24001 12.7798 7.21001 12.3098 7.49001 11.9998L8.99001 10.3298C9.20001 10.0998 9.53001 10.0198 9.82001 10.1298C10.11 10.2398 10.3 10.5198 10.3 10.8298V16.1798C10.29 16.5898 9.96001 16.9198 9.54001 16.9198Z" fill="#292D32"/>
<path d="M12 3.47994C11.92 3.47994 11.84 3.48994 11.76 3.48994L12.58 2.46994C12.84 2.14994 12.79 1.66994 12.46 1.41994C12.13 1.16994 11.67 1.20994 11.41 1.53994L9.44001 3.99994C9.43001 4.00994 9.43001 4.01994 9.42001 4.03994C9.39001 4.07994 9.37001 4.12994 9.35001 4.16994C9.33001 4.21994 9.31001 4.25994 9.30001 4.29994C9.29001 4.34994 9.29001 4.38994 9.29001 4.43994C9.29001 4.48994 9.29001 4.53994 9.29001 4.58994C9.29001 4.60994 9.29001 4.61994 9.29001 4.63994C9.30001 4.66994 9.32001 4.68994 9.33001 4.71994C9.35001 4.76994 9.37001 4.80994 9.39001 4.85994C9.42001 4.89994 9.45001 4.93994 9.49001 4.96994C9.51001 4.99994 9.52001 5.02994 9.55001 5.04994C9.57001 5.05994 9.58001 5.06994 9.60001 5.07994C9.62001 5.09994 9.65001 5.10994 9.68001 5.11994C9.73001 5.14994 9.79001 5.16994 9.84001 5.17994C9.88001 5.19994 9.91001 5.19994 9.94001 5.19994C9.97001 5.19994 9.99001 5.20994 10.02 5.20994C10.05 5.20994 10.07 5.19994 10.09 5.18994C10.12 5.18994 10.15 5.19994 10.18 5.18994C10.82 5.03994 11.42 4.96994 11.99 4.96994C16.48 4.96994 20.13 8.61994 20.13 13.1099C20.13 17.5999 16.48 21.2499 11.99 21.2499C7.50001 21.2499 3.85001 17.5999 3.85001 13.1099C3.85001 11.3699 4.42001 9.68994 5.50001 8.24994C5.75001 7.91994 5.68001 7.44994 5.35001 7.19994C5.02001 6.94994 4.55001 7.01994 4.30001 7.34994C3.02001 9.04994 2.35001 11.0399 2.35001 13.1099C2.35001 18.4199 6.67001 22.7499 11.99 22.7499C17.31 22.7499 21.63 18.4299 21.63 13.1099C21.63 7.78994 17.31 3.47994 12 3.47994Z" fill="#292D32"/>
</svg>
