<svg width="24" height="24" viewBox="0 0 24 24" fill="none" xmlns="http://www.w3.org/2000/svg">
<path d="M17.6 5.31027L11.95 2.27027C11.35 1.95027 10.64 1.95027 10.04 2.27027L4.40001 5.31027C3.99001 5.54027 3.73001 5.98027 3.73001 6.46027C3.73001 6.95027 3.98001 7.39027 4.40001 7.61027L10.05 10.6503C10.35 10.8103 10.68 10.8903 11 10.8903C11.32 10.8903 11.66 10.8103 11.95 10.6503L17.6 7.61027C18.01 7.39027 18.27 6.95027 18.27 6.46027C18.27 5.98027 18.01 5.54027 17.6 5.31027Z" fill="#292D32"/>
<path d="M9.12 11.7106L3.87 9.09058C3.46 8.88058 3 8.91058 2.61 9.14058C2.23 9.38058 2 9.79058 2 10.2406V15.2006C2 16.0606 2.48 16.8306 3.25 17.2206L8.5 19.8406C8.68 19.9306 8.88 19.9806 9.08 19.9806C9.31 19.9806 9.55 19.9106 9.76 19.7906C10.14 19.5506 10.37 19.1406 10.37 18.6906V13.7306C10.36 12.8706 9.88 12.1006 9.12 11.7106Z" fill="#292D32"/>
<path d="M20 10.2406V12.7006C19.52 12.5606 19.01 12.5006 18.5 12.5006C17.14 12.5006 15.81 12.9706 14.76 13.8106C13.32 14.9406 12.5 16.6506 12.5 18.5006C12.5 18.9906 12.56 19.4806 12.69 19.9506C12.54 19.9306 12.39 19.8706 12.25 19.7806C11.87 19.5506 11.64 19.1406 11.64 18.6906V13.7306C11.64 12.8706 12.12 12.1006 12.88 11.7106L18.13 9.09058C18.54 8.88058 19 8.91058 19.39 9.14058C19.77 9.38058 20 9.79058 20 10.2406Z" fill="#292D32"/>
<path d="M22.58 21.4999L21.74 20.6599C22.18 19.9999 22.44 19.1999 22.44 18.3499C22.44 16.0199 20.55 14.1299 18.22 14.1299C15.89 14.1299 14 16.0199 14 18.3499C14 20.6799 15.89 22.5699 18.22 22.5699C19.07 22.5699 19.87 22.3099 20.53 21.8699L21.37 22.7099C21.54 22.8799 21.75 22.9599 21.97 22.9599C22.19 22.9599 22.41 22.8799 22.57 22.7099C22.91 22.3699 22.91 21.8299 22.58 21.4999Z" fill="#292D32"/>
</svg>
