<svg width="24" height="24" viewBox="0 0 24 24" fill="none" xmlns="http://www.w3.org/2000/svg">
<path d="M17.6 5.31027L11.95 2.27027C11.35 1.95027 10.64 1.95027 10.04 2.27027L4.40001 5.31027C3.99001 5.54027 3.73001 5.98027 3.73001 6.46027C3.73001 6.95027 3.98001 7.39027 4.40001 7.61027L10.05 10.6503C10.35 10.8103 10.68 10.8903 11 10.8903C11.32 10.8903 11.66 10.8103 11.95 10.6503L17.6 7.61027C18.01 7.39027 18.27 6.95027 18.27 6.46027C18.27 5.98027 18.01 5.54027 17.6 5.31027Z" fill="#292D32"/>
<path d="M9.12 11.7106L3.87 9.09058C3.46 8.88058 3 8.91058 2.61 9.14058C2.23 9.38058 2 9.79058 2 10.2406V15.2006C2 16.0606 2.48 16.8306 3.25 17.2206L8.5 19.8406C8.68 19.9306 8.88 19.9806 9.08 19.9806C9.31 19.9806 9.55 19.9106 9.76 19.7906C10.14 19.5506 10.37 19.1406 10.37 18.6906V13.7306C10.36 12.8706 9.88 12.1006 9.12 11.7106Z" fill="#292D32"/>
<path d="M20 10.2406V12.7006C19.52 12.5606 19.01 12.5006 18.5 12.5006C17.14 12.5006 15.81 12.9706 14.76 13.8106C13.32 14.9406 12.5 16.6506 12.5 18.5006C12.5 18.9906 12.56 19.4806 12.69 19.9506C12.54 19.9306 12.39 19.8706 12.25 19.7806C11.87 19.5506 11.64 19.1406 11.64 18.6906V13.7306C11.64 12.8706 12.12 12.1006 12.88 11.7106L18.13 9.09058C18.54 8.88058 19 8.91058 19.39 9.14058C19.77 9.38058 20 9.79058 20 10.2406Z" fill="#292D32"/>
<path d="M21.98 15.6695C21.16 14.6595 19.91 14.0195 18.5 14.0195C17.44 14.0195 16.46 14.3895 15.69 15.0095C14.65 15.8295 14 17.0995 14 18.5195C14 19.3595 14.24 20.1595 14.65 20.8395C14.92 21.2895 15.26 21.6795 15.66 21.9995H15.67C16.44 22.6395 17.43 23.0195 18.5 23.0195C19.64 23.0195 20.67 22.5995 21.46 21.8995C21.81 21.5995 22.11 21.2395 22.35 20.8395C22.76 20.1595 23 19.3595 23 18.5195C23 17.4395 22.62 16.4395 21.98 15.6695ZM20.76 17.9595L18.36 20.1795C18.22 20.3095 18.03 20.3795 17.85 20.3795C17.66 20.3795 17.47 20.3095 17.32 20.1595L16.21 19.0495C15.92 18.7595 15.92 18.2795 16.21 17.9895C16.5 17.6995 16.98 17.6995 17.27 17.9895L17.87 18.5895L19.74 16.8595C20.04 16.5795 20.52 16.5995 20.8 16.8995C21.09 17.2095 21.07 17.6795 20.76 17.9595Z" fill="#292D32"/>
</svg>
