<svg width="24" height="24" viewBox="0 0 24 24" fill="none" xmlns="http://www.w3.org/2000/svg">
<path d="M17.6 5.31027L11.95 2.27027C11.35 1.95027 10.64 1.95027 10.04 2.27027L4.4 5.31027C3.99 5.54027 3.73 5.98027 3.73 6.46027C3.73 6.95027 3.98 7.39027 4.4 7.61027L10.05 10.6503C10.35 10.8103 10.68 10.8903 11 10.8903C11.32 10.8903 11.66 10.8103 11.95 10.6503L17.6 7.61027C18.01 7.39027 18.27 6.95027 18.27 6.46027C18.27 5.98027 18.01 5.54027 17.6 5.31027Z" fill="#292D32"/>
<path d="M9.12 11.7106L3.87 9.09058C3.46 8.88058 3 8.91058 2.61 9.14058C2.23 9.38058 2 9.79058 2 10.2406V15.2006C2 16.0606 2.48 16.8306 3.25 17.2206L8.5 19.8406C8.68 19.9306 8.88 19.9806 9.08 19.9806C9.31 19.9806 9.55 19.9106 9.76 19.7906C10.14 19.5506 10.37 19.1406 10.37 18.6906V13.7306C10.36 12.8706 9.88 12.1006 9.12 11.7106Z" fill="#292D32"/>
<path d="M20 10.2406V12.7006C19.52 12.5606 19.01 12.5006 18.5 12.5006C17.14 12.5006 15.81 12.9706 14.76 13.8106C13.32 14.9406 12.5 16.6506 12.5 18.5006C12.5 18.9906 12.56 19.4806 12.69 19.9506C12.54 19.9306 12.39 19.8706 12.25 19.7806C11.87 19.5506 11.64 19.1406 11.64 18.6906V13.7306C11.64 12.8706 12.12 12.1006 12.88 11.7106L18.13 9.09058C18.54 8.88058 19 8.91058 19.39 9.14058C19.77 9.38058 20 9.79058 20 10.2406Z" fill="#292D32"/>
<path d="M21.68 15.3197C20.79 14.4297 19.61 13.9797 18.44 13.9997C17.31 14.0097 16.18 14.4597 15.32 15.3197C14.72 15.9097 14.33 16.6497 14.14 17.4197C14.03 17.8397 13.99 18.2697 14.02 18.6997V18.7497C14.02 18.8197 14.03 18.8797 14.04 18.9597C14.04 18.9597 14.04 18.9597 14.05 18.9697V18.9997C14.14 19.9797 14.56 20.9297 15.32 21.6797C16.48 22.8397 18.11 23.2297 19.58 22.8597C20.02 22.7497 20.45 22.5697 20.85 22.3297C21.15 22.1597 21.43 21.9397 21.68 21.6797C22.43 20.9297 22.86 19.9797 22.95 18.9897C22.96 18.9897 22.96 18.9697 22.96 18.9597C22.98 18.8897 22.98 18.8097 22.98 18.7397C22.98 18.7297 22.99 18.7097 22.99 18.6897C23.05 17.4797 22.61 16.2397 21.68 15.3197ZM20.23 20.2097C19.94 20.4997 19.47 20.4997 19.17 20.2097L18.51 19.5497L17.83 20.2297C17.53 20.5297 17.06 20.5297 16.77 20.2297C16.47 19.9397 16.47 19.4697 16.77 19.1697L17.45 18.4897L16.79 17.8297C16.5 17.5297 16.5 17.0597 16.79 16.7697C17.09 16.4697 17.56 16.4697 17.86 16.7697L18.51 17.4297L19.14 16.7897C19.44 16.4997 19.91 16.4997 20.21 16.7897C20.5 17.0897 20.5 17.5597 20.21 17.8597L19.57 18.4897L20.23 19.1397C20.53 19.4397 20.53 19.9097 20.23 20.2097Z" fill="#292D32"/>
</svg>
