<svg width="293" height="47" viewBox="0 0 293 47" fill="none" xmlns="http://www.w3.org/2000/svg">
<path d="M32.504 30.48C30.808 32.528 28.808 34.096 26.504 35.184C24.2 36.24 21.624 36.768 18.776 36.768C16.216 36.768 13.832 36.304 11.624 35.376C9.448 34.448 7.56 33.184 5.96 31.584C4.36 29.984 3.096 28.096 2.168 25.92C1.24 23.712 0.776 21.344 0.776 18.816C0.776 16.288 1.24 13.936 2.168 11.76C3.096 9.552 4.36 7.648 5.96 6.048C7.56 4.448 9.448 3.184 11.624 2.256C13.832 1.328 16.216 0.863997 18.776 0.863997C21.528 0.863997 23.944 1.344 26.024 2.304C28.136 3.264 30.008 4.656 31.64 6.48L27.08 10.896C26.056 9.712 24.872 8.768 23.528 8.064C22.216 7.36 20.648 7.008 18.824 7.008C17.224 7.008 15.72 7.296 14.312 7.872C12.904 8.416 11.672 9.2 10.616 10.224C9.592 11.248 8.776 12.496 8.168 13.968C7.56 15.408 7.256 17.024 7.256 18.816C7.256 20.608 7.56 22.24 8.168 23.712C8.776 25.152 9.592 26.384 10.616 27.408C11.672 28.432 12.904 29.232 14.312 29.808C15.72 30.352 17.224 30.624 18.824 30.624C20.744 30.624 22.44 30.24 23.912 29.472C25.416 28.672 26.744 27.552 27.896 26.112L32.504 30.48ZM36.4693 12.48H42.3733V15.744H42.7573C43.0453 15.168 43.4293 14.64 43.9093 14.16C44.3893 13.68 44.9173 13.264 45.4933 12.912C46.1013 12.56 46.7413 12.288 47.4133 12.096C48.1173 11.904 48.8053 11.808 49.4773 11.808C50.3093 11.808 51.0133 11.888 51.5893 12.048C52.1973 12.208 52.7093 12.416 53.1253 12.672L51.4453 18.384C51.0613 18.192 50.6293 18.048 50.1493 17.952C49.7013 17.824 49.1413 17.76 48.4693 17.76C47.6053 17.76 46.8213 17.936 46.1172 18.288C45.4133 18.608 44.8053 19.072 44.2933 19.68C43.8133 20.288 43.4293 21.008 43.1413 21.84C42.8853 22.64 42.7573 23.52 42.7573 24.48V36H36.4693V12.48ZM63.8769 34.848L53.9889 12.48H61.1409L67.0929 26.736H67.4289L73.1409 12.48H80.1489L65.4129 46.368H58.6449L63.8769 34.848ZM82.8241 12.48H88.7281V15.312H89.1121C89.6881 14.32 90.5841 13.472 91.8001 12.768C93.0161 12.064 94.5201 11.712 96.3121 11.712C97.8161 11.712 99.2401 12.032 100.584 12.672C101.96 13.28 103.16 14.144 104.184 15.264C105.24 16.352 106.072 17.664 106.68 19.2C107.288 20.736 107.592 22.416 107.592 24.24C107.592 26.064 107.288 27.744 106.68 29.28C106.072 30.816 105.24 32.144 104.184 33.264C103.16 34.352 101.96 35.216 100.584 35.856C99.2401 36.464 97.8161 36.768 96.3121 36.768C94.5201 36.768 93.0161 36.416 91.8001 35.712C90.5841 35.008 89.6881 34.16 89.1121 33.168H88.7281L89.1121 36.528V46.368H82.8241V12.48ZM95.0161 30.96C95.8481 30.96 96.6321 30.8 97.3681 30.48C98.1361 30.16 98.8081 29.712 99.3841 29.136C99.9601 28.56 100.424 27.856 100.776 27.024C101.128 26.192 101.304 25.264 101.304 24.24C101.304 23.216 101.128 22.288 100.776 21.456C100.424 20.624 99.9601 19.92 99.3841 19.344C98.8081 18.768 98.1361 18.32 97.3681 18C96.6321 17.68 95.8481 17.52 95.0161 17.52C94.1841 17.52 93.3841 17.68 92.6161 18C91.8801 18.288 91.2241 18.72 90.6481 19.296C90.0721 19.872 89.6081 20.576 89.2561 21.408C88.9041 22.24 88.7281 23.184 88.7281 24.24C88.7281 25.296 88.9041 26.24 89.2561 27.072C89.6081 27.904 90.0721 28.608 90.6481 29.184C91.2241 29.76 91.8801 30.208 92.6161 30.528C93.3841 30.816 94.1841 30.96 95.0161 30.96ZM113.264 17.856H109.136V12.48H113.264V5.28H119.552V12.48H125.312V17.856H119.552V26.976C119.552 27.52 119.6 28.032 119.696 28.512C119.824 28.96 120.048 29.344 120.368 29.664C120.816 30.176 121.456 30.432 122.288 30.432C122.832 30.432 123.264 30.384 123.584 30.288C123.904 30.16 124.208 30 124.496 29.808L126.272 35.328C125.536 35.68 124.736 35.936 123.872 36.096C123.04 36.288 122.112 36.384 121.088 36.384C119.904 36.384 118.832 36.208 117.872 35.856C116.944 35.472 116.16 34.96 115.52 34.32C114.016 32.88 113.264 30.832 113.264 28.176V17.856ZM140.84 11.712C142.664 11.712 144.328 12.032 145.832 12.672C147.368 13.28 148.68 14.144 149.768 15.264C150.888 16.352 151.752 17.664 152.36 19.2C153 20.736 153.32 22.416 153.32 24.24C153.32 26.064 153 27.744 152.36 29.28C151.752 30.816 150.888 32.144 149.768 33.264C148.68 34.352 147.368 35.216 145.832 35.856C144.328 36.464 142.664 36.768 140.84 36.768C139.016 36.768 137.336 36.464 135.8 35.856C134.296 35.216 132.984 34.352 131.864 33.264C130.776 32.144 129.912 30.816 129.272 29.28C128.664 27.744 128.36 26.064 128.36 24.24C128.36 22.416 128.664 20.736 129.272 19.2C129.912 17.664 130.776 16.352 131.864 15.264C132.984 14.144 134.296 13.28 135.8 12.672C137.336 12.032 139.016 11.712 140.84 11.712ZM140.84 30.96C141.64 30.96 142.408 30.816 143.144 30.528C143.912 30.208 144.584 29.76 145.16 29.184C145.736 28.608 146.184 27.904 146.504 27.072C146.856 26.24 147.032 25.296 147.032 24.24C147.032 23.184 146.856 22.24 146.504 21.408C146.184 20.576 145.736 19.872 145.16 19.296C144.584 18.72 143.912 18.288 143.144 18C142.408 17.68 141.64 17.52 140.84 17.52C140.008 17.52 139.224 17.68 138.488 18C137.752 18.288 137.096 18.72 136.52 19.296C135.944 19.872 135.48 20.576 135.128 21.408C134.808 22.24 134.648 23.184 134.648 24.24C134.648 25.296 134.808 26.24 135.128 27.072C135.48 27.904 135.944 28.608 136.52 29.184C137.096 29.76 137.752 30.208 138.488 30.528C139.224 30.816 140.008 30.96 140.84 30.96ZM167.907 18.336H184.179V23.904H167.907V18.336ZM200.878 1.632H214.318C215.79 1.632 217.166 1.872 218.446 2.352C219.726 2.8 220.83 3.44 221.758 4.272C222.718 5.072 223.47 6.016 224.014 7.104C224.558 8.192 224.83 9.36 224.83 10.608C224.83 12.432 224.382 13.968 223.486 15.216C222.622 16.432 221.534 17.36 220.222 18V18.384C221.982 19.024 223.39 20.032 224.446 21.408C225.534 22.752 226.078 24.432 226.078 26.448C226.078 27.92 225.774 29.248 225.166 30.432C224.59 31.584 223.79 32.576 222.766 33.408C221.742 34.24 220.542 34.88 219.166 35.328C217.822 35.776 216.366 36 214.798 36H200.878V1.632ZM213.838 15.648C215.342 15.648 216.494 15.248 217.294 14.448C218.126 13.616 218.542 12.64 218.542 11.52C218.542 10.4 218.142 9.44 217.342 8.64C216.542 7.84 215.438 7.44 214.03 7.44H207.358V15.648H213.838ZM214.558 30.048C216.19 30.048 217.438 29.648 218.302 28.848C219.166 28.016 219.598 26.96 219.598 25.68C219.598 24.4 219.15 23.344 218.254 22.512C217.39 21.648 216.094 21.216 214.366 21.216H207.358V30.048H214.558ZM241.433 11.712C243.257 11.712 244.921 12.032 246.425 12.672C247.961 13.28 249.273 14.144 250.361 15.264C251.481 16.352 252.345 17.664 252.953 19.2C253.593 20.736 253.913 22.416 253.913 24.24C253.913 26.064 253.593 27.744 252.953 29.28C252.345 30.816 251.481 32.144 250.361 33.264C249.273 34.352 247.961 35.216 246.425 35.856C244.921 36.464 243.257 36.768 241.433 36.768C239.609 36.768 237.929 36.464 236.393 35.856C234.889 35.216 233.577 34.352 232.457 33.264C231.369 32.144 230.505 30.816 229.865 29.28C229.257 27.744 228.953 26.064 228.953 24.24C228.953 22.416 229.257 20.736 229.865 19.2C230.505 17.664 231.369 16.352 232.457 15.264C233.577 14.144 234.889 13.28 236.393 12.672C237.929 12.032 239.609 11.712 241.433 11.712ZM241.433 30.96C242.233 30.96 243.001 30.816 243.737 30.528C244.505 30.208 245.177 29.76 245.753 29.184C246.329 28.608 246.777 27.904 247.097 27.072C247.449 26.24 247.625 25.296 247.625 24.24C247.625 23.184 247.449 22.24 247.097 21.408C246.777 20.576 246.329 19.872 245.753 19.296C245.177 18.72 244.505 18.288 243.737 18C243.001 17.68 242.233 17.52 241.433 17.52C240.601 17.52 239.817 17.68 239.081 18C238.345 18.288 237.689 18.72 237.113 19.296C236.537 19.872 236.073 20.576 235.721 21.408C235.401 22.24 235.241 23.184 235.241 24.24C235.241 25.296 235.401 26.24 235.721 27.072C236.073 27.904 236.537 28.608 237.113 29.184C237.689 29.76 238.345 30.208 239.081 30.528C239.817 30.816 240.601 30.96 241.433 30.96ZM257.719 36V1.632H264.007V36H257.719ZM286.677 33.168H286.293C285.717 34.16 284.821 35.008 283.605 35.712C282.389 36.416 280.885 36.768 279.093 36.768C277.589 36.768 276.149 36.464 274.773 35.856C273.429 35.216 272.229 34.352 271.173 33.264C270.149 32.144 269.333 30.816 268.725 29.28C268.117 27.744 267.813 26.064 267.813 24.24C267.813 22.416 268.117 20.736 268.725 19.2C269.333 17.664 270.149 16.352 271.173 15.264C272.229 14.144 273.429 13.28 274.773 12.672C276.149 12.032 277.589 11.712 279.093 11.712C280.885 11.712 282.389 12.064 283.605 12.768C284.821 13.472 285.717 14.32 286.293 15.312H286.677L286.293 11.952V1.632H292.581V36H286.677V33.168ZM280.389 30.96C281.221 30.96 282.005 30.816 282.741 30.528C283.509 30.208 284.181 29.76 284.757 29.184C285.333 28.608 285.797 27.904 286.149 27.072C286.501 26.24 286.677 25.296 286.677 24.24C286.677 23.184 286.501 22.24 286.149 21.408C285.797 20.576 285.333 19.872 284.757 19.296C284.181 18.72 283.509 18.288 282.741 18C282.005 17.68 281.221 17.52 280.389 17.52C279.557 17.52 278.757 17.68 277.989 18C277.253 18.32 276.597 18.768 276.021 19.344C275.445 19.92 274.981 20.624 274.629 21.456C274.277 22.288 274.101 23.216 274.101 24.24C274.101 25.264 274.277 26.192 274.629 27.024C274.981 27.856 275.445 28.56 276.021 29.136C276.597 29.712 277.253 30.16 277.989 30.48C278.757 30.8 279.557 30.96 280.389 30.96Z" fill="#17191C"/>
</svg>
