<svg width="20" height="20" viewBox="0 0 20 20" fill="none" xmlns="http://www.w3.org/2000/svg">
<g clip-path="url(#clip0_218_51474)">
<path d="M2.79357 17.4194H10.9258C11.6516 18.9419 13.2032 20 15 20C17.4903 20 19.5162 17.9742 19.5162 15.4839C19.5162 13.8161 18.6065 12.3613 17.2581 11.5775V3.59998C17.2581 2.32579 16.2226 1.2903 14.9484 1.2903H14.0323V0.645149C14.0323 0.290306 13.7419 0 13.3871 0C13.0322 0 12.7419 0.290306 12.7419 0.645149V1.2903H5.00004V0.645149C5.00004 0.290306 4.70968 0 4.35484 0C3.99999 0 3.70969 0.290306 3.70969 0.645149V1.2903H2.79357C1.51938 1.2903 0.483887 2.32579 0.483887 3.59998V15.1097C0.483887 16.3839 1.51938 17.4194 2.79357 17.4194ZM18.2258 15.4839C18.2258 17.2612 16.7774 18.7097 15 18.7097C13.2226 18.7097 11.7742 17.2612 11.7742 15.4839C11.7742 13.7065 13.2226 12.2581 15 12.2581C16.7774 12.2581 18.2258 13.7065 18.2258 15.4839ZM1.77424 3.59998C1.77424 3.03871 2.2323 2.58065 2.79357 2.58065H3.70969V3.2258C3.70969 3.58064 3.99999 3.87095 4.35484 3.87095C4.70968 3.87095 4.99998 3.58064 4.99998 3.2258V2.58065H12.7419V3.2258C12.7419 3.58064 13.0322 3.87095 13.3871 3.87095C13.7419 3.87095 14.0322 3.58064 14.0322 3.2258V2.58065H14.9484C15.5096 2.58065 15.9677 3.03871 15.9677 3.59998V11.0741C15.6548 11.0064 15.3322 10.9677 15 10.9677C12.5096 10.9677 10.4838 12.9935 10.4838 15.4839C10.4838 15.7032 10.5064 15.9161 10.5354 16.129H2.79357C2.2323 16.129 1.77424 15.6709 1.77424 15.1097V3.59998Z" fill="#202224"/>
<path d="M5.16142 7.41951C5.6068 7.41951 5.96785 7.05846 5.96785 6.61308C5.96785 6.16769 5.6068 5.80664 5.16142 5.80664C4.71603 5.80664 4.35498 6.16769 4.35498 6.61308C4.35498 7.05846 4.71603 7.41951 5.16142 7.41951Z" fill="#202224"/>
<path d="M8.70975 7.41951C9.15514 7.41951 9.51619 7.05846 9.51619 6.61308C9.51619 6.16769 9.15514 5.80664 8.70975 5.80664C8.26437 5.80664 7.90332 6.16769 7.90332 6.61308C7.90332 7.05846 8.26437 7.41951 8.70975 7.41951Z" fill="#202224"/>
<path d="M12.2581 7.41951C12.7035 7.41951 13.0645 7.05846 13.0645 6.61308C13.0645 6.16769 12.7035 5.80664 12.2581 5.80664C11.8127 5.80664 11.4517 6.16769 11.4517 6.61308C11.4517 7.05846 11.8127 7.41951 12.2581 7.41951Z" fill="#202224"/>
<path d="M5.16142 10.6451C5.6068 10.6451 5.96785 10.2841 5.96785 9.83867C5.96785 9.39328 5.6068 9.03223 5.16142 9.03223C4.71603 9.03223 4.35498 9.39328 4.35498 9.83867C4.35498 10.2841 4.71603 10.6451 5.16142 10.6451Z" fill="#202224"/>
<path d="M8.70975 10.6451C9.15514 10.6451 9.51619 10.2841 9.51619 9.83867C9.51619 9.39328 9.15514 9.03223 8.70975 9.03223C8.26437 9.03223 7.90332 9.39328 7.90332 9.83867C7.90332 10.2841 8.26437 10.6451 8.70975 10.6451Z" fill="#202224"/>
<path d="M12.2581 10.6451C12.7035 10.6451 13.0645 10.2841 13.0645 9.83867C13.0645 9.39328 12.7035 9.03223 12.2581 9.03223C11.8127 9.03223 11.4517 9.39328 11.4517 9.83867C11.4517 10.2841 11.8127 10.6451 12.2581 10.6451Z" fill="#202224"/>
<path d="M5.16142 13.8712C5.6068 13.8712 5.96785 13.5101 5.96785 13.0647C5.96785 12.6194 5.6068 12.2583 5.16142 12.2583C4.71603 12.2583 4.35498 12.6194 4.35498 13.0647C4.35498 13.5101 4.71603 13.8712 5.16142 13.8712Z" fill="#202224"/>
<path d="M8.70975 13.8712C9.15514 13.8712 9.51619 13.5101 9.51619 13.0647C9.51619 12.6194 9.15514 12.2583 8.70975 12.2583C8.26437 12.2583 7.90332 12.6194 7.90332 13.0647C7.90332 13.5101 8.26437 13.8712 8.70975 13.8712Z" fill="#202224"/>
<path d="M14.355 14.1934V15.8064C14.355 16.1612 14.6453 16.4515 15.0001 16.4515H16.2904C16.6453 16.4515 16.9356 16.1612 16.9356 15.8064C16.9356 15.4515 16.6453 15.1612 16.2904 15.1612H15.6453V14.1935C15.6453 13.8386 15.355 13.5483 15.0001 13.5483C14.6453 13.5483 14.355 13.8386 14.355 14.1934Z" fill="#202224"/>
</g>
<defs>
<clipPath id="clip0_218_51474">
<rect width="20" height="20" fill="white"/>
</clipPath>
</defs>
</svg>
