<svg width="24" height="24" viewBox="0 0 24 24" fill="none" xmlns="http://www.w3.org/2000/svg">
<path d="M21.77 2.22988C21.47 1.92988 20.98 1.92988 20.68 2.22988L2.23 20.6899C1.93 20.9899 1.93 21.4799 2.23 21.7799C2.38 21.9199 2.57 21.9999 2.77 21.9999C2.97 21.9999 3.16 21.9199 3.31 21.7699L21.77 3.30988C22.08 3.00988 22.08 2.52988 21.77 2.22988Z" fill="#292D32"/>
<path d="M16.55 5.11L15.83 3.66C15.37 2.75 14.17 2 13.15 2H10.86C9.82998 2 8.62998 2.75 8.16998 3.66L7.44998 5.11C7.16998 5.65 6.60998 6 5.99998 6C3.82998 6 2.10998 7.83 2.24998 9.99L2.76998 18.25C2.81998 19.1 3.02998 19.89 3.47998 20.52L18 6C17.39 6 16.83 5.65 16.55 5.11ZM9.49998 10.75H6.49998C6.08998 10.75 5.74998 10.41 5.74998 10C5.74998 9.59 6.08998 9.25 6.49998 9.25H9.49998C9.90998 9.25 10.25 9.59 10.25 10C10.25 10.41 9.90998 10.75 9.49998 10.75Z" fill="#292D32"/>
<path d="M21.75 9.98981L21.23 18.2498C21.1 20.3098 20 21.9998 17.24 21.9998H7.41002C6.52002 21.9998 6.07002 20.9198 6.70002 20.2898L9.17002 17.8198C9.48002 17.5098 9.96002 17.4698 10.35 17.6898C11.04 18.0798 11.87 18.2298 12.75 18.0398C14.02 17.7698 15.05 16.7298 15.3 15.4498C15.47 14.5898 15.32 13.7798 14.94 13.1098C14.72 12.7198 14.75 12.2298 15.07 11.9198L19.57 7.41981C19.98 7.00981 20.67 7.05981 21.02 7.52981C21.54 8.20981 21.81 9.06981 21.75 9.98981Z" fill="#292D32"/>
</svg>
