<svg width="20" height="20" viewBox="0 0 20 20" fill="none" xmlns="http://www.w3.org/2000/svg">
<path fill-rule="evenodd" clip-rule="evenodd" d="M18.6349 16.0062L16.9961 3.5062C16.9369 3.05501 16.7157 2.64074 16.3736 2.34062C16.0315 2.0405 15.592 1.87501 15.1369 1.875H5.01834C4.5633 1.87502 4.1238 2.04052 3.78176 2.34064C3.43973 2.64076 3.21851 3.05502 3.15934 3.5062L1.52034 16.0062C1.48561 16.2708 1.50776 16.5397 1.5853 16.795C1.66285 17.0503 1.794 17.2862 1.97 17.4867C2.14599 17.6873 2.36277 17.848 2.60585 17.9581C2.84893 18.0681 3.1127 18.125 3.37954 18.125H16.7759C17.0428 18.125 17.3065 18.0681 17.5496 17.958C17.7926 17.8479 18.0094 17.6872 18.1854 17.4867C18.3613 17.2861 18.4925 17.0503 18.57 16.795C18.6475 16.5397 18.6697 16.2708 18.6349 16.0062ZM6.32554 5.0008C6.32554 7.0704 8.00574 8.7508 10.0755 8.7508C12.1451 8.7508 13.8255 7.0704 13.8255 5.0008C13.8214 4.83778 13.7538 4.68282 13.637 4.56897C13.5202 4.45513 13.3636 4.39141 13.2005 4.39141C13.0375 4.39141 12.8808 4.45513 12.7641 4.56897C12.6473 4.68282 12.5797 4.83778 12.5755 5.0008C12.5755 6.3806 11.4553 7.5008 10.0755 7.5008C8.69574 7.5008 7.57554 6.3806 7.57554 5.0008C7.57142 4.83778 7.50376 4.68282 7.387 4.56897C7.27024 4.45513 7.11362 4.39141 6.95054 4.39141C6.78747 4.39141 6.63084 4.45513 6.51408 4.56897C6.39732 4.68282 6.32967 4.83778 6.32554 5.0008Z" fill="#292D32"/>
</svg>
