<svg width="24" height="24" viewBox="0 0 24 24" fill="none" xmlns="http://www.w3.org/2000/svg">
<path d="M12.0298 2.03027C10.0798 2.03027 8.25978 2.59027 6.72978 3.55027L13.5898 10.4203L13.5998 7.68027C13.5998 7.27027 13.9398 6.93027 14.3498 6.93027C14.7698 6.93027 15.0998 7.27027 15.0998 7.68027L15.0898 12.2303C15.0898 12.5403 14.8998 12.8103 14.6198 12.9203C14.5298 12.9603 14.4298 12.9803 14.3398 12.9803C14.1398 12.9803 13.9498 12.9003 13.8098 12.7603L5.61979 4.56027C5.57979 4.52027 5.54979 4.48027 5.51979 4.44027C3.37979 6.28027 2.02979 9.00027 2.02979 12.0303C2.02979 17.5503 6.50979 22.0303 12.0298 22.0303C13.9798 22.0303 15.7998 21.4703 17.3298 20.5103L10.4698 13.6403L10.4598 16.3803C10.4598 16.7903 10.1198 17.1303 9.70979 17.1303C9.28979 17.1303 8.95979 16.7903 8.95979 16.3803L8.96979 11.8303C8.96979 11.5203 9.15978 11.2503 9.43979 11.1403C9.70978 11.0203 10.0398 11.0803 10.2498 11.3003L18.4398 19.5003C18.4798 19.5403 18.5098 19.5803 18.5398 19.6203C20.6798 17.7803 22.0298 15.0603 22.0298 12.0303C22.0298 6.51027 17.5498 2.03027 12.0298 2.03027Z" fill="#292D32"/>
</svg>
