<svg width="24" height="24" viewBox="0 0 24 24" fill="none" xmlns="http://www.w3.org/2000/svg">
<path d="M5.53 2C5.11 2 4.78 2.34 4.78 2.75V4.78H2.75C2.34 4.78 2 5.11 2 5.53C2 5.95 2.34 6.28 2.75 6.28H5.53C5.94 6.28 6.28 5.94 6.28 5.53V2.75C6.28 2.34 5.94 2 5.53 2Z" fill="#292D32"/>
<path d="M21.25 17.7197H18.47C18.06 17.7197 17.72 18.0597 17.72 18.4697V21.2497C17.72 21.6597 18.06 21.9997 18.47 21.9997C18.88 21.9997 19.22 21.6597 19.22 21.2497V19.2197H21.25C21.66 19.2197 22 18.8797 22 18.4697C22 18.0597 21.66 17.7197 21.25 17.7197Z" fill="#292D32"/>
<path d="M16.72 18.4703C16.72 17.5103 17.51 16.7203 18.47 16.7203H19.16V10.0503C19.16 7.16031 16.82 4.82031 13.93 4.82031H7.27996V5.51031C7.27996 6.47031 6.48996 7.26031 5.52996 7.26031H4.82996V13.9303C4.82996 16.8203 7.16996 19.1603 10.06 19.1603H16.73V18.4703H16.72Z" fill="#292D32"/>
</svg>
