<svg width="24" height="24" viewBox="0 0 24 24" fill="none" xmlns="http://www.w3.org/2000/svg">
<path d="M15.72 9.69002C13.67 7.63002 10.33 7.63002 8.27999 9.69002C6.21999 11.75 6.21999 15.08 8.27999 17.13C10.34 19.19 13.67 19.19 15.72 17.13C17.78 15.07 17.78 11.74 15.72 9.69002ZM12.53 13.94L10.94 15.53C10.79 15.68 10.6 15.75 10.41 15.75C10.22 15.75 10.02 15.68 9.87999 15.53C9.58999 15.24 9.58999 14.76 9.87999 14.46L11.47 12.87C11.76 12.58 12.24 12.58 12.54 12.87C12.83 13.17 12.83 13.65 12.53 13.94Z" fill="#292D32"/>
<path d="M19.6 5.81021C19.38 5.59021 19.1 5.47021 18.79 5.47021C18.48 5.47021 18.2 5.59022 17.98 5.80022C17.53 6.25022 17.53 6.97022 17.98 7.42022C18.2 7.64022 18.48 7.76022 18.79 7.76022C19.1 7.76022 19.38 7.64021 19.6 7.43021C19.82 7.21021 19.94 6.93021 19.94 6.62021C19.94 6.31021 19.82 6.02021 19.6 5.81021Z" fill="#292D32"/>
<path d="M6.02 19.3898C5.8 19.1698 5.52 19.0498 5.21 19.0498C4.9 19.0498 4.62 19.1698 4.4 19.3798C4.18 19.5998 4.06 19.8798 4.06 20.1898C4.06 20.4998 4.18 20.7798 4.4 20.9998C4.62 21.2198 4.92 21.3298 5.21 21.3298C5.5 21.3298 5.8 21.2198 6.02 20.9898C6.46 20.5598 6.46 19.8298 6.02 19.3898Z" fill="#292D32"/>
<path d="M22.41 12.5998C22.2 12.3798 21.91 12.2698 21.6 12.2598C21.29 12.2598 21.01 12.3798 20.79 12.5998C20.34 13.0498 20.34 13.7698 20.79 14.2198C21.01 14.4398 21.31 14.5498 21.6 14.5498C21.89 14.5498 22.19 14.4398 22.41 14.2198C22.86 13.7698 22.86 13.0398 22.41 12.5998Z" fill="#292D32"/>
<path d="M3.21 12.5999C2.77 12.1599 2.04 12.1499 1.59 12.5999C1.14 13.0499 1.14 13.7699 1.59 14.2199C1.81 14.4399 2.11 14.5499 2.4 14.5499C2.69 14.5499 2.99 14.4399 3.21 14.2199C3.65 13.7699 3.65 13.0399 3.21 12.5999Z" fill="#292D32"/>
<path d="M19.6 19.3902C19.15 18.9402 18.43 18.9402 17.98 19.3902C17.53 19.8402 17.53 20.5602 17.98 21.0102C18.2 21.2302 18.5 21.3402 18.79 21.3402C19.08 21.3402 19.38 21.2302 19.6 21.0102C19.82 20.7902 19.94 20.5002 19.94 20.2002C19.94 19.8902 19.82 19.6002 19.6 19.3902Z" fill="#292D32"/>
<path d="M6.02 5.81021C5.8 5.59021 5.52 5.47021 5.21 5.47021C4.9 5.47021 4.62 5.59022 4.4 5.80022C4.18 6.02022 4.06 6.30022 4.06 6.61022C4.06 6.92022 4.18 7.21022 4.4 7.42022C4.62 7.64022 4.9 7.76022 5.21 7.76022C5.52 7.76022 5.8 7.64021 6.02 7.43021C6.46 6.98021 6.46 6.25021 6.02 5.81021Z" fill="#292D32"/>
<path d="M12.81 3.0001C12.81 2.9901 12.81 2.9901 12.81 3.0001C12.36 2.5501 11.64 2.5501 11.19 3.0001C10.97 3.2201 10.85 3.5101 10.85 3.8101C10.85 4.1201 10.97 4.4001 11.18 4.6201C11.4 4.8401 11.68 4.9601 11.99 4.9601C12.3 4.9601 12.58 4.8401 12.8 4.6201C13.26 4.1701 13.26 3.4401 12.81 3.0001Z" fill="#292D32"/>
</svg>
