<svg width="24" height="24" viewBox="0 0 24 24" fill="none" xmlns="http://www.w3.org/2000/svg">
<path d="M8.2584 21.2448C8.90537 20.5978 9.27704 19.7719 9.37339 18.9184C9.50416 17.7828 9.12562 16.6058 8.2584 15.7386C7.74219 15.2224 7.10899 14.8783 6.44137 14.72C5.16807 14.3965 3.75711 14.7337 2.75224 15.7386C2.05709 16.4338 1.67854 17.3216 1.63036 18.237C1.59595 18.6294 1.63036 19.0354 1.7336 19.4277C1.8919 20.0954 2.23604 20.7286 2.75224 21.2448C4.27332 22.7659 6.73732 22.7659 8.2584 21.2448ZM6.96445 17.7759C7.36365 17.7759 7.69402 18.1063 7.69402 18.5055C7.68713 18.9115 7.36365 19.235 6.95757 19.2419L6.23488 19.235L6.24177 19.9302C6.23488 20.3363 5.9114 20.6597 5.50532 20.6666C5.09924 20.6597 4.77575 20.3363 4.76887 19.9302L4.77575 19.235L4.05307 19.2419C3.64699 19.235 3.3235 18.9115 3.31662 18.5055C3.3235 18.3059 3.40609 18.1269 3.53687 17.9961C3.66764 17.8654 3.84659 17.7828 4.04619 17.7759L4.77575 17.7759L4.77575 17.0188C4.77575 16.8123 4.85834 16.6334 4.98912 16.5026C5.11989 16.3718 5.29884 16.2892 5.50532 16.2892C5.90451 16.2892 6.23488 16.6196 6.23488 17.0188L6.23488 17.7759L6.96445 17.7759Z" fill="#292D32"/>
<path d="M15.0944 3.84548V7.54425H13.6343V3.84548C13.6343 3.58267 13.4007 3.45613 13.245 3.45613C13.1963 3.45613 13.1476 3.46587 13.099 3.48533L5.38023 6.39568C4.86435 6.59035 4.5334 7.07703 4.5334 7.63185V8.284C3.64765 8.94589 3.07336 10.0068 3.07336 11.2041V7.63185C3.07336 6.47355 3.78392 5.44179 4.86435 5.03298L12.5928 2.1129C12.807 2.03503 13.0308 1.99609 13.245 1.99609C14.2183 1.99609 15.0944 2.78452 15.0944 3.84548Z" fill="#292D32"/>
<path d="M21.5686 14.1151V15.0885C21.5686 15.3513 21.3642 15.5654 21.0916 15.5751H19.6705C19.1546 15.5751 18.6874 15.1955 18.6485 14.6894C18.6193 14.3876 18.7361 14.1054 18.9308 13.9107C19.106 13.7258 19.3493 13.6284 19.6121 13.6284H21.0819C21.3642 13.6382 21.5686 13.8523 21.5686 14.1151Z" fill="#292D32"/>
<path d="M19.601 12.6049H20.5938C21.1292 12.6049 21.5672 12.1669 21.5672 11.6316V11.2033C21.5672 9.18844 19.9222 7.54346 17.9074 7.54346H6.7332C5.90584 7.54346 5.14662 7.816 4.5334 8.28321C3.64765 8.9451 3.07336 10.0061 3.07336 11.2033V12.9359C3.07336 13.3057 3.46271 13.5394 3.81312 13.4226C4.3582 13.2376 4.93248 13.1403 5.50676 13.1403C8.45605 13.1403 10.8602 15.5445 10.8602 18.4938C10.8602 19.1946 10.6753 19.9635 10.3833 20.6449C10.2276 20.9953 10.4709 21.4138 10.8505 21.4138H17.9074C19.9222 21.4138 21.5672 19.7689 21.5672 17.754V17.5691C21.5672 17.0337 21.1292 16.5957 20.5938 16.5957H19.747C18.8126 16.5957 17.9171 16.0214 17.6738 15.1162C17.4791 14.3764 17.7127 13.6562 18.1994 13.1889C18.5595 12.8191 19.0559 12.6049 19.601 12.6049ZM14.267 12.4103H9.40021C9.00113 12.4103 8.67019 12.0793 8.67019 11.6802C8.67019 11.2812 9.00113 10.9502 9.40021 10.9502H14.267C14.6661 10.9502 14.997 11.2812 14.997 11.6802C14.997 12.0793 14.6661 12.4103 14.267 12.4103Z" fill="#292D32"/>
</svg>
