<svg width="24" height="24" viewBox="0 0 24 24" fill="none" xmlns="http://www.w3.org/2000/svg">
<path d="M6.96792 10.7971C6.7434 10.4934 6.67736 10.1037 6.78302 9.74052L7.93208 5.91694C8.60566 3.67165 10.9698 2.39713 13.2151 3.07071C14.5821 3.48014 15.6519 4.54996 16.0613 5.91694L17.217 9.73392C17.4085 10.3679 17.0519 11.0283 16.4179 11.2198C16.3057 11.2528 16.1868 11.2726 16.0745 11.2726H7.92547C7.54906 11.2792 7.19245 11.0943 6.96792 10.7971ZM19 19.8839C19 20.5443 18.4651 21.0792 17.8047 21.0792H6.19528C5.53491 21.0792 5 20.5443 5 19.8839C5 16.0207 8.13679 12.8707 12 12.8707C15.8632 12.8707 19 16.0207 19 19.8839Z" fill="black"/>
</svg>
