<svg width="24" height="24" viewBox="0 0 24 24" fill="none" xmlns="http://www.w3.org/2000/svg">
<path d="M19 8C20.6569 8 22 6.65685 22 5C22 3.34315 20.6569 2 19 2C17.3431 2 16 3.34315 16 5C16 6.65685 17.3431 8 19 8Z" fill="#292D32"/>
<path d="M17.79 9.33976C16.28 8.93976 15.06 7.71976 14.66 6.20976C14.4 5.24976 14.46 4.32976 14.75 3.50976C14.95 2.94976 14.61 2.32976 14.03 2.20976C12.56 1.89976 10.97 1.90976 9.30997 2.35976C5.52997 3.41976 2.63997 6.68976 2.09997 10.5798C1.17997 17.1998 6.78997 22.8098 13.41 21.8998C17.31 21.3598 20.57 18.4698 21.62 14.6798C22.08 13.0298 22.09 11.4398 21.78 9.95976C21.66 9.37976 21.04 9.04976 20.48 9.23976C19.67 9.52976 18.75 9.58976 17.79 9.33976Z" fill="#292D32"/>
</svg>
