<svg width="24" height="24" viewBox="0 0 24 24" fill="none" xmlns="http://www.w3.org/2000/svg">
<path d="M15.41 18.5899C15.01 18.5899 14.68 18.2599 14.68 17.8599C14.68 17.4599 15.01 17.1299 15.41 17.1299C18.23 17.1299 20.53 14.8299 20.53 12.0099C20.53 9.18992 18.23 6.88992 15.41 6.88992C12.59 6.88992 10.29 9.18992 10.29 12.0099C10.29 12.4099 9.95996 12.7399 9.55996 12.7399C9.15996 12.7399 8.82996 12.4099 8.82996 12.0099C8.82996 8.37992 11.78 5.41992 15.42 5.41992C19.06 5.41992 22 8.36992 22 11.9999C22 15.6299 19.05 18.5899 15.41 18.5899Z" fill="#292D32"/>
<path d="M8.59 5.41016C8.99 5.41016 9.32 5.74016 9.32 6.14016C9.32 6.54016 8.99 6.87016 8.59 6.87016C5.77 6.87016 3.47 9.17016 3.47 11.9902C3.47 14.8102 5.77 17.1102 8.59 17.1102C11.41 17.1102 13.71 14.8102 13.71 11.9902C13.71 11.5902 14.04 11.2602 14.44 11.2602C14.84 11.2602 15.17 11.5902 15.17 11.9902C15.17 15.6202 12.22 18.5802 8.58 18.5802C4.94 18.5802 2 15.6302 2 12.0002C2 8.37016 4.95 5.41016 8.59 5.41016Z" fill="#292D32"/>
</svg>
