<svg width="20" height="20" viewBox="0 0 20 20" fill="none" xmlns="http://www.w3.org/2000/svg">
<g clip-path="url(#clip0_11_11117)">
<path fill-rule="evenodd" clip-rule="evenodd" d="M15.284 14.546C15.7859 14.1911 16.3853 14.0004 17 14C18.654 14 20 15.346 20 17C20 18.654 18.654 20 17 20C15.346 20 14 18.654 14 17C14.004 16.721 14.047 16.445 14.129 16.178L12.554 15.053C11.8413 15.6604 10.9365 15.9959 10 16C9.06353 15.9959 8.15874 15.6604 7.446 15.053L5.871 16.178C5.947 16.44 6 16.713 6 17C6 18.654 4.654 20 3 20C1.346 20 0 18.654 0 17C0 15.346 1.346 14 3 14C3.615 14 4.214 14.191 4.716 14.546L6.276 13.432C6.09636 12.9758 6.00279 12.4903 6 12C6 10.142 7.28 8.589 9 8.142V5.815C8.41669 5.60985 7.91123 5.22908 7.5531 4.72501C7.19497 4.22095 7.00175 3.61833 7 3C7 1.346 8.346 0 10 0C11.654 0 13 1.346 13 3C12.998 3.6184 12.8047 4.22104 12.4466 4.72522C12.0886 5.2294 11.5832 5.61042 11 5.816V8.142C12.72 8.589 14 10.142 14 12C13.997 12.49 13.904 12.976 13.724 13.432L15.284 14.546ZM16.321 17.692C16.4992 17.8784 16.7424 17.9887 17 18C17.2652 18 17.5196 17.8946 17.7071 17.7071C17.8946 17.5196 18 17.2652 18 17C18 16.7348 17.8946 16.4804 17.7071 16.2929C17.5196 16.1054 17.2652 16 17 16C16.8077 16.0081 16.6218 16.0715 16.4646 16.1827C16.3074 16.2939 16.1857 16.448 16.114 16.6267C16.0423 16.8053 16.0237 17.0009 16.0604 17.1899C16.0971 17.3788 16.1876 17.5532 16.321 17.692ZM2.321 17.692C2.49917 17.8784 2.74242 17.9887 3 18C3.26522 18 3.51957 17.8946 3.70711 17.7071C3.89464 17.5196 4 17.2652 4 17C4 16.7348 3.89464 16.4804 3.70711 16.2929C3.51957 16.1054 3.26522 16 3 16C2.80766 16.0081 2.62175 16.0715 2.46459 16.1827C2.30742 16.2939 2.18568 16.448 2.11399 16.6267C2.04229 16.8053 2.02369 17.0009 2.06041 17.1899C2.09713 17.3788 2.18762 17.5532 2.321 17.692ZM11 3C11 2.449 10.551 2 10 2C9.449 2 9 2.449 9 3C9 3.551 9.449 4 10 4C10.551 4 11 3.551 11 3Z" fill="black"/>
</g>
<defs>
<clipPath id="clip0_11_11117">
<rect width="20" height="20" fill="white"/>
</clipPath>
</defs>
</svg>
