<svg width="20" height="20" viewBox="0 0 20 20" fill="none" xmlns="http://www.w3.org/2000/svg">
<path d="M4.10156 9.41406C4.42517 9.41406 4.6875 9.15173 4.6875 8.82812C4.6875 8.50452 4.42517 8.24219 4.10156 8.24219C3.77796 8.24219 3.51562 8.50452 3.51562 8.82812C3.51562 9.15173 3.77796 9.41406 4.10156 9.41406Z" fill="black"/>
<path d="M8.78906 9.41406C9.11267 9.41406 9.375 9.15173 9.375 8.82812C9.375 8.50452 9.11267 8.24219 8.78906 8.24219C8.46546 8.24219 8.20312 8.50452 8.20312 8.82812C8.20312 9.15173 8.46546 9.41406 8.78906 9.41406Z" fill="black"/>
<path d="M17.6562 17.0312C17.6562 17.3593 17.3985 17.6172 17.0703 17.6172H14.7266C14.3984 17.6172 14.1406 17.3593 14.1406 17.0312C14.1406 16.7031 14.3984 16.4453 14.7266 16.4453H15.3125V3.55469H14.7266C14.3984 3.55469 14.1406 3.29684 14.1406 2.96875C14.1406 2.64059 14.3984 2.38281 14.7266 2.38281H17.0703C17.3985 2.38281 17.6562 2.64059 17.6562 2.96875C17.6562 3.29684 17.3985 3.55469 17.0703 3.55469H16.4844V16.4453H17.0703C17.3985 16.4453 17.6562 16.7031 17.6562 17.0312ZM18.2422 4.72656H17.6562V15.2734H18.2422C19.2149 15.2734 20 14.4882 20 13.5156V6.48438C20 5.51168 19.2149 4.72656 18.2422 4.72656ZM14.1406 4.72656H1.75781C0.786992 4.72656 0 5.51355 0 6.48438V13.5156C0 14.4864 0.786992 15.2734 1.75781 15.2734H14.1406V4.72656ZM5.71875 11.8515C5.44926 12.5078 4.80465 12.9297 4.10156 12.9297C3.39848 12.9297 2.75387 12.5078 2.48438 11.8515C2.35547 11.5586 2.49609 11.2188 2.78906 11.0898C3.09375 10.9609 3.43359 11.1016 3.56246 11.3945C3.75 11.8398 4.45309 11.8398 4.64062 11.3945C4.67574 11.2773 4.68746 10.9023 4.69922 10.4804C4.51168 10.539 4.31246 10.5859 4.10156 10.5859C3.12887 10.5859 2.34375 9.80074 2.34375 8.82812C2.34375 7.85543 3.12887 7.07031 4.10156 7.07031C5.0625 7.07031 5.84766 7.85543 5.85938 8.81641C5.85938 9.52656 5.9325 11.3656 5.71875 11.8515ZM8.78906 12.9297C8.08598 12.9297 7.44137 12.5078 7.17188 11.8515C7.04297 11.5586 7.18359 11.2188 7.47656 11.0898C7.78125 10.9609 8.12109 11.1016 8.24996 11.3945C8.4375 11.8398 9.14059 11.8398 9.32812 11.3945C9.36324 11.2773 9.37496 10.9023 9.38672 10.4804C9.19918 10.539 8.99996 10.5859 8.78906 10.5859C7.81637 10.5859 7.03125 9.80074 7.03125 8.82812C7.03125 7.85543 7.81637 7.07031 8.78906 7.07031C9.75 7.07031 10.5352 7.85543 10.5469 8.81641C10.5469 9.52656 10.62 11.3656 10.4062 11.8515C10.1368 12.5078 9.49215 12.9297 8.78906 12.9297Z" fill="black"/>
</svg>
