<svg width="20" height="20" viewBox="0 0 20 20" fill="none" xmlns="http://www.w3.org/2000/svg">
<path d="M4.0625 12.6563C3.53714 12.6563 3.02359 12.5005 2.58677 12.2086C2.14995 11.9167 1.80949 11.5019 1.60845 11.0165C1.4074 10.5311 1.3548 9.99705 1.45729 9.48179C1.55978 8.96653 1.81277 8.49323 2.18425 8.12175C2.55573 7.75027 3.02903 7.49728 3.54429 7.39479C4.05955 7.2923 4.59364 7.3449 5.079 7.54595C5.56437 7.74699 5.97922 8.08745 6.27109 8.52427C6.56296 8.96109 6.71875 9.47464 6.71875 10C6.71792 10.7042 6.4378 11.3794 5.93984 11.8773C5.44188 12.3753 4.76673 12.6554 4.0625 12.6563ZM4.0625 8.28125C3.72256 8.28125 3.39026 8.38205 3.10761 8.57091C2.82497 8.75977 2.60467 9.0282 2.47458 9.34226C2.3445 9.65632 2.31046 10.0019 2.37678 10.3353C2.44309 10.6687 2.60679 10.975 2.84716 11.2153C3.08753 11.4557 3.39378 11.6194 3.72719 11.6857C4.06059 11.752 4.40618 11.718 4.72024 11.5879C5.0343 11.4578 5.30273 11.2375 5.49159 10.9549C5.68045 10.6722 5.78125 10.3399 5.78125 10C5.78076 9.54431 5.59951 9.10743 5.27729 8.78521C4.95507 8.46299 4.51819 8.28175 4.0625 8.28125ZM4.0625 6.71875C3.53714 6.71875 3.02359 6.56296 2.58677 6.27109C2.14995 5.97922 1.80949 5.56437 1.60845 5.079C1.4074 4.59364 1.3548 4.05955 1.45729 3.54429C1.55978 3.02903 1.81277 2.55573 2.18425 2.18425C2.55573 1.81277 3.02903 1.55978 3.54429 1.45729C4.05955 1.3548 4.59364 1.4074 5.079 1.60845C5.56437 1.80949 5.97922 2.14995 6.27109 2.58677C6.56296 3.02359 6.71875 3.53714 6.71875 4.0625C6.71792 4.76673 6.4378 5.44188 5.93984 5.93984C5.44188 6.4378 4.76673 6.71792 4.0625 6.71875ZM4.0625 2.34375C3.72256 2.34375 3.39026 2.44455 3.10761 2.63341C2.82497 2.82227 2.60467 3.0907 2.47458 3.40476C2.3445 3.71882 2.31046 4.06441 2.37678 4.39781C2.44309 4.73122 2.60679 5.03747 2.84716 5.27784C3.08753 5.51821 3.39378 5.68191 3.72719 5.74823C4.06059 5.81454 4.40618 5.78051 4.72024 5.65042C5.0343 5.52033 5.30273 5.30003 5.49159 5.01739C5.68045 4.73474 5.78125 4.40244 5.78125 4.0625C5.78076 3.60681 5.59951 3.16993 5.27729 2.84771C4.95507 2.52549 4.51819 2.34425 4.0625 2.34375ZM4.0625 18.5938C3.53714 18.5938 3.02359 18.438 2.58677 18.1461C2.14995 17.8542 1.80949 17.4394 1.60845 16.954C1.4074 16.4686 1.3548 15.9346 1.45729 15.4193C1.55978 14.904 1.81277 14.4307 2.18425 14.0592C2.55573 13.6878 3.02903 13.4348 3.54429 13.3323C4.05955 13.2298 4.59364 13.2824 5.079 13.4834C5.56437 13.6845 5.97922 14.025 6.27109 14.4618C6.56296 14.8986 6.71875 15.4121 6.71875 15.9375C6.71792 16.6417 6.4378 17.3169 5.93984 17.8148C5.44188 18.3128 4.76673 18.5929 4.0625 18.5938ZM4.0625 14.2188C3.72256 14.2188 3.39026 14.3196 3.10761 14.5084C2.82497 14.6973 2.60467 14.9657 2.47458 15.2798C2.3445 15.5938 2.31046 15.9394 2.37678 16.2728C2.44309 16.6062 2.60679 16.9125 2.84716 17.1528C3.08753 17.3932 3.39378 17.5569 3.72719 17.6232C4.06059 17.6895 4.40618 17.6555 4.72024 17.5254C5.0343 17.3953 5.30273 17.175 5.49159 16.8924C5.68045 16.6097 5.78125 16.2774 5.78125 15.9375C5.78076 15.4818 5.59951 15.0449 5.27729 14.7227C4.95507 14.4005 4.51819 14.2192 4.0625 14.2188ZM17.8125 7.96875H8.4375C8.2303 7.96875 8.03159 8.05106 7.88507 8.19757C7.73856 8.34409 7.65625 8.5428 7.65625 8.75V11.25C7.65625 11.4572 7.73856 11.6559 7.88507 11.8024C8.03159 11.9489 8.2303 12.0313 8.4375 12.0313H17.8125C18.0197 12.0313 18.2184 11.9489 18.3649 11.8024C18.5114 11.6559 18.5938 11.4572 18.5938 11.25V8.75C18.5938 8.5428 18.5114 8.34409 18.3649 8.19757C18.2184 8.05106 18.0197 7.96875 17.8125 7.96875ZM17.6563 11.0938H16.0938V8.90625H17.6563V11.0938ZM17.8125 2.03125H8.4375C8.2303 2.03125 8.03159 2.11356 7.88507 2.26007C7.73856 2.40659 7.65625 2.6053 7.65625 2.8125V5.3125C7.65625 5.5197 7.73856 5.71842 7.88507 5.86493C8.03159 6.01144 8.2303 6.09375 8.4375 6.09375H17.8125C18.0197 6.09375 18.2184 6.01144 18.3649 5.86493C18.5114 5.71842 18.5938 5.5197 18.5938 5.3125V2.8125C18.5938 2.6053 18.5114 2.40659 18.3649 2.26007C18.2184 2.11356 18.0197 2.03125 17.8125 2.03125ZM17.6563 5.15625H14.8438V2.96875H17.6563V5.15625ZM17.8125 13.9063H8.4375C8.2303 13.9063 8.03159 13.9886 7.88507 14.1351C7.73856 14.2816 7.65625 14.4803 7.65625 14.6875V17.1875C7.65625 17.3947 7.73856 17.5934 7.88507 17.7399C8.03159 17.8864 8.2303 17.9688 8.4375 17.9688H17.8125C18.0197 17.9688 18.2184 17.8864 18.3649 17.7399C18.5114 17.5934 18.5938 17.3947 18.5938 17.1875V14.6875C18.5938 14.4803 18.5114 14.2816 18.3649 14.1351C18.2184 13.9886 18.0197 13.9063 17.8125 13.9063ZM17.6563 17.0313H12.9688V14.8438H17.6563V17.0313Z" fill="black"/>
<path d="M5.09111 16.8737L4.58861 16.7062C4.57345 16.7009 4.56001 16.6916 4.54971 16.6793C4.53941 16.6669 4.53262 16.652 4.53006 16.6362C4.5275 16.6203 4.52926 16.6041 4.53517 16.5891C4.54107 16.5742 4.5509 16.5611 4.56361 16.5513C4.68807 16.442 4.78709 16.3069 4.85372 16.1553C4.92034 16.0037 4.95294 15.8393 4.94924 15.6737C4.97067 15.4154 4.8897 15.1591 4.72378 14.9599C4.55786 14.7608 4.3203 14.6349 4.06236 14.6094C3.80443 14.6349 3.56687 14.7608 3.40095 14.9599C3.23503 15.1591 3.15405 15.4154 3.17549 15.6737C3.17178 15.8393 3.20439 16.0037 3.27101 16.1553C3.33763 16.3069 3.43665 16.442 3.56111 16.5513C3.57382 16.5611 3.58365 16.5742 3.58956 16.5891C3.59546 16.6041 3.59723 16.6203 3.59467 16.6362C3.59211 16.652 3.58532 16.6669 3.57501 16.6793C3.56471 16.6916 3.55127 16.7009 3.53611 16.7062L3.03361 16.8737C2.91126 16.9145 2.79928 16.9815 2.70548 17.0701C2.61168 17.1586 2.53831 17.2665 2.49049 17.3863L2.38611 17.6475C2.37542 17.6744 2.37145 17.7035 2.37457 17.7322C2.37768 17.761 2.38778 17.7886 2.40399 17.8125C2.42019 17.8365 2.44201 17.8562 2.46755 17.8698C2.49308 17.8834 2.52155 17.8905 2.55049 17.8906H5.57486C5.60387 17.8906 5.63243 17.8834 5.65804 17.8698C5.68364 17.8561 5.70551 17.8364 5.72173 17.8124C5.73795 17.7883 5.74803 17.7607 5.75108 17.7318C5.75413 17.7029 5.75007 17.6738 5.73924 17.6469L5.63486 17.3856C5.5869 17.2659 5.5134 17.1581 5.41949 17.0697C5.32558 16.9813 5.21352 16.9144 5.09111 16.8737ZM5.09111 4.99875L4.58861 4.83125C4.57345 4.82591 4.56001 4.81659 4.54971 4.80426C4.53941 4.79193 4.53262 4.77704 4.53006 4.76118C4.5275 4.74531 4.52926 4.72905 4.53517 4.71411C4.54107 4.69916 4.5509 4.68608 4.56361 4.67625C4.68807 4.56702 4.78709 4.43186 4.85372 4.28026C4.92034 4.12866 4.95294 3.9643 4.94924 3.79875C4.97067 3.54044 4.8897 3.28407 4.72378 3.08494C4.55786 2.88581 4.3203 2.7599 4.06236 2.73438C3.80443 2.7599 3.56687 2.88581 3.40095 3.08494C3.23503 3.28407 3.15405 3.54044 3.17549 3.79875C3.17178 3.9643 3.20439 4.12866 3.27101 4.28026C3.33763 4.43186 3.43665 4.56702 3.56111 4.67625C3.57382 4.68608 3.58365 4.69916 3.58956 4.71411C3.59546 4.72905 3.59723 4.74531 3.59467 4.76118C3.59211 4.77704 3.58532 4.79193 3.57501 4.80426C3.56471 4.81659 3.55127 4.82591 3.53611 4.83125L3.03361 4.99875C2.91126 5.03955 2.79928 5.10654 2.70548 5.19505C2.61168 5.28356 2.53831 5.39147 2.49049 5.51125L2.38611 5.7725C2.37542 5.79938 2.37145 5.82847 2.37457 5.85724C2.37768 5.88601 2.38778 5.91357 2.40399 5.93754C2.42019 5.96151 2.44201 5.98116 2.46755 5.99477C2.49308 6.00837 2.52155 6.01554 2.55049 6.01562H5.57486C5.60387 6.01558 5.63243 6.00842 5.65804 5.99477C5.68364 5.98113 5.70551 5.96142 5.72173 5.93737C5.73795 5.91331 5.74803 5.88565 5.75108 5.8568C5.75413 5.82795 5.75007 5.79879 5.73924 5.77187L5.63486 5.51063C5.5869 5.3909 5.5134 5.28307 5.41949 5.19467C5.32558 5.10626 5.21352 5.0394 5.09111 4.99875ZM5.09111 10.9362L4.58861 10.7687C4.57345 10.7634 4.56001 10.7541 4.54971 10.7418C4.53941 10.7294 4.53262 10.7145 4.53006 10.6987C4.5275 10.6828 4.52926 10.6666 4.53517 10.6516C4.54107 10.6367 4.5509 10.6236 4.56361 10.6138C4.68807 10.5045 4.78709 10.3694 4.85372 10.2178C4.92034 10.0662 4.95294 9.9018 4.94924 9.73625C4.97067 9.47794 4.8897 9.22157 4.72378 9.02244C4.55786 8.82331 4.3203 8.6974 4.06236 8.67188C3.80443 8.6974 3.56687 8.82331 3.40095 9.02244C3.23503 9.22157 3.15405 9.47794 3.17549 9.73625C3.17178 9.9018 3.20439 10.0662 3.27101 10.2178C3.33763 10.3694 3.43665 10.5045 3.56111 10.6138C3.57382 10.6236 3.58365 10.6367 3.58956 10.6516C3.59546 10.6666 3.59723 10.6828 3.59467 10.6987C3.59211 10.7145 3.58532 10.7294 3.57501 10.7418C3.56471 10.7541 3.55127 10.7634 3.53611 10.7687L3.03361 10.9362C2.91126 10.977 2.79928 11.044 2.70548 11.1326C2.61168 11.2211 2.53831 11.329 2.49049 11.4488L2.38611 11.71C2.37542 11.7369 2.37145 11.766 2.37457 11.7947C2.37768 11.8235 2.38778 11.8511 2.40399 11.875C2.42019 11.899 2.44201 11.9187 2.46755 11.9323C2.49308 11.9459 2.52155 11.953 2.55049 11.9531H5.57486C5.60387 11.9531 5.63243 11.9459 5.65804 11.9323C5.68364 11.9186 5.70551 11.8989 5.72173 11.8749C5.73795 11.8508 5.74803 11.8232 5.75108 11.7943C5.75413 11.7654 5.75007 11.7363 5.73924 11.7094L5.63486 11.4481C5.5869 11.3284 5.5134 11.2206 5.41949 11.1322C5.32558 11.0438 5.21352 10.9769 5.09111 10.9362Z" fill="black"/>
</svg>
