<svg width="20" height="20" viewBox="0 0 20 20" fill="none" xmlns="http://www.w3.org/2000/svg">
<path d="M13.0096 13.9515C12.9859 13.8787 12.9423 13.814 12.8838 13.7647C12.8253 13.7153 12.7541 13.6834 12.6784 13.6723L11.0818 13.4404L10.3678 11.9936C10.3339 11.925 10.2815 11.8672 10.2165 11.8268C10.1515 11.7864 10.0765 11.765 10 11.765C9.92347 11.765 9.84846 11.7864 9.78347 11.8268C9.71847 11.8672 9.66607 11.925 9.63219 11.9936L8.9182 13.4404L7.3216 13.6723C7.24586 13.6834 7.17472 13.7153 7.1162 13.7647C7.05769 13.814 7.01413 13.8787 6.99047 13.9515C6.96683 14.0243 6.96402 14.1022 6.98236 14.1765C7.0007 14.2508 7.03946 14.3185 7.09426 14.372L8.24957 15.4981L7.97684 17.0882C7.96388 17.1637 7.9723 17.2412 8.00113 17.3121C8.02996 17.383 8.07805 17.4445 8.13997 17.4894C8.2019 17.5344 8.27517 17.5612 8.35151 17.5667C8.42785 17.5722 8.50421 17.5563 8.57195 17.5206L10 16.7698L11.4281 17.5206C11.4958 17.5563 11.5722 17.5722 11.6485 17.5667C11.7249 17.5612 11.7981 17.5344 11.86 17.4894C11.922 17.4444 11.9701 17.383 11.9989 17.3121C12.0277 17.2412 12.0361 17.1637 12.0232 17.0882L11.7505 15.4981L12.9058 14.372C12.9606 14.3185 12.9994 14.2508 13.0177 14.1765C13.036 14.1022 13.0332 14.0243 13.0096 13.9515ZM6.37648 13.9516C6.3528 13.8788 6.30923 13.8141 6.2507 13.7647C6.19218 13.7154 6.12102 13.6834 6.04527 13.6724L4.44867 13.4404L3.73469 11.9936C3.70081 11.925 3.64841 11.8672 3.58341 11.8268C3.51841 11.7864 3.44341 11.765 3.36688 11.765C3.29034 11.765 3.21534 11.7864 3.15034 11.8268C3.08534 11.8672 3.03294 11.925 2.99906 11.9936L2.28508 13.4404L0.688477 13.6724C0.61274 13.6834 0.541593 13.7154 0.483077 13.7647C0.424561 13.814 0.381009 13.8787 0.357344 13.9515C0.333705 14.0243 0.330897 14.1023 0.349238 14.1766C0.367579 14.2509 0.406337 14.3186 0.461133 14.372L1.61645 15.4982L1.34375 17.0883C1.33081 17.1638 1.33924 17.2413 1.36807 17.3122C1.39691 17.3831 1.445 17.4445 1.50692 17.4895C1.56883 17.5345 1.6421 17.5612 1.71844 17.5668C1.79477 17.5723 1.87113 17.5563 1.93887 17.5207L3.36691 16.7699L4.795 17.5207C4.86274 17.5563 4.93909 17.5723 5.01543 17.5668C5.09177 17.5613 5.16504 17.5345 5.22695 17.4895C5.28887 17.4445 5.33697 17.3831 5.3658 17.3122C5.39463 17.2413 5.40306 17.1638 5.39012 17.0883L5.11738 15.4982L6.2727 14.372C6.3275 14.3186 6.36627 14.2509 6.38461 14.1766C6.40295 14.1023 6.40014 14.0244 6.37648 13.9516ZM19.6428 13.9515C19.6191 13.8787 19.5755 13.814 19.517 13.7647C19.4584 13.7154 19.3873 13.6834 19.3116 13.6724L17.715 13.4404L17.001 11.9936C16.9671 11.925 16.9147 11.8672 16.8497 11.8268C16.7847 11.7864 16.7097 11.765 16.6332 11.765C16.5566 11.765 16.4816 11.7864 16.4166 11.8268C16.3516 11.8672 16.2992 11.925 16.2654 11.9936L15.5514 13.4404L13.9548 13.6724C13.879 13.6834 13.8079 13.7154 13.7494 13.7647C13.6909 13.814 13.6473 13.8787 13.6236 13.9515C13.6 14.0243 13.5972 14.1023 13.6155 14.1766C13.6339 14.2509 13.6726 14.3186 13.7274 14.372L14.8827 15.4981L14.61 17.0883C14.597 17.1637 14.6055 17.2413 14.6343 17.3122C14.6631 17.3831 14.7112 17.4445 14.7731 17.4895C14.8351 17.5345 14.9083 17.5612 14.9847 17.5667C15.061 17.5723 15.1374 17.5563 15.2051 17.5207L16.6332 16.7699L18.0613 17.5207C18.129 17.5563 18.2053 17.5722 18.2817 17.5667C18.358 17.5612 18.4313 17.5344 18.4932 17.4894C18.5551 17.4445 18.6032 17.383 18.632 17.3122C18.6609 17.2413 18.6693 17.1637 18.6564 17.0883L18.3837 15.4981L19.539 14.372C19.5938 14.3185 19.6326 14.2508 19.6509 14.1765C19.6692 14.1022 19.6664 14.0243 19.6428 13.9515ZM17.1831 2.43262H2.81687C1.26367 2.43262 0 3.69625 0 5.24949V7.15023C0 8.60043 1.10141 9.79816 2.51176 9.95066L3.12082 10.7621C3.3216 11.0296 3.62852 11.186 3.96289 11.1912L3.98012 11.1913C4.30797 11.1913 4.6125 11.0452 4.81789 10.7886L5.47574 9.96707H17.1831C18.7364 9.96707 20 8.70344 20 7.1502V5.24945C20 3.69625 18.7363 2.43262 17.1831 2.43262ZM8.74344 7.93992H3.41C3.08641 7.93992 2.82406 7.67758 2.82406 7.35398C2.82406 7.03039 3.08641 6.76805 3.41 6.76805H8.74344C9.06703 6.76805 9.32938 7.03039 9.32938 7.35398C9.32938 7.67758 9.06703 7.93992 8.74344 7.93992ZM16.59 5.58398H3.41C3.08641 5.58398 2.82406 5.32164 2.82406 4.99805C2.82406 4.67445 3.08641 4.41211 3.41 4.41211H16.59C16.9136 4.41211 17.1759 4.67445 17.1759 4.99805C17.1759 5.32164 16.9136 5.58398 16.59 5.58398Z" fill="black"/>
</svg>
