<svg width="24" height="24" viewBox="0 0 24 24" fill="none" xmlns="http://www.w3.org/2000/svg">
<path d="M7.00061 2H6.00061C3.00061 2 2.00061 3.79 2.00061 6V7V21C2.00061 21.83 2.94061 22.3 3.60061 21.8L5.31061 20.52C5.71061 20.22 6.27061 20.26 6.63061 20.62L8.29061 22.29C8.68061 22.68 9.32061 22.68 9.71061 22.29L11.3906 20.61C11.7406 20.26 12.3006 20.22 12.6906 20.52L14.4006 21.8C15.0606 22.29 16.0006 21.82 16.0006 21V4C16.0006 2.9 16.9006 2 18.0006 2H7.00061ZM11.7506 10.75H6.25061C5.84061 10.75 5.50061 10.41 5.50061 10C5.50061 9.59 5.84061 9.25 6.25061 9.25H11.7506C12.1606 9.25 12.5006 9.59 12.5006 10C12.5006 10.41 12.1606 10.75 11.7506 10.75Z" fill="#292D32"/>
<path d="M18.0106 2V3.5C18.6706 3.5 19.3006 3.77 19.7606 4.22C20.2406 4.71 20.5006 5.34 20.5006 6V8.42C20.5006 9.16 20.1706 9.5 19.4206 9.5H17.5006V4.01C17.5006 3.73 17.7306 3.5 18.0106 3.5V2ZM18.0106 2C16.9006 2 16.0006 2.9 16.0006 4.01V11H19.4206C21.0006 11 22.0006 10 22.0006 8.42V6C22.0006 4.9 21.5506 3.9 20.8306 3.17C20.1006 2.45 19.1106 2.01 18.0106 2C18.0206 2 18.0106 2 18.0106 2Z" fill="#292D32"/>
</svg>
