<svg width="24" height="24" viewBox="0 0 24 24" fill="none" xmlns="http://www.w3.org/2000/svg">
<path d="M17.42 4.41043H5.39002L7.27002 2.53043C7.56002 2.24043 7.56002 1.76043 7.27002 1.47043C6.98002 1.18043 6.50002 1.18043 6.21002 1.47043L3.05002 4.63043C2.98002 4.70043 2.93002 4.78043 2.89002 4.87043C2.85002 4.96043 2.83002 5.06043 2.83002 5.16043C2.83002 5.26043 2.85002 5.36043 2.89002 5.45043C2.93002 5.54043 2.98002 5.62043 3.05002 5.69043L6.21002 8.85043C6.36002 9.00043 6.55002 9.07043 6.74002 9.07043C6.93002 9.07043 7.12002 9.00043 7.27002 8.85043C7.56002 8.56043 7.56002 8.08043 7.27002 7.79043L5.39002 5.91043H17.42C18.66 5.91043 19.67 6.92043 19.67 8.16043V11.4804C19.67 11.8904 20.01 12.2304 20.42 12.2304C20.83 12.2304 21.17 11.8904 21.17 11.4804V8.16043C21.17 6.09043 19.49 4.41043 17.42 4.41043Z" fill="#292D32"/>
<path d="M21.17 18.8395C21.17 18.7395 21.15 18.6395 21.11 18.5495C21.07 18.4595 21.02 18.3795 20.95 18.3095L17.79 15.1495C17.5 14.8595 17.02 14.8595 16.73 15.1495C16.44 15.4395 16.44 15.9195 16.73 16.2095L18.61 18.0895H6.58002C5.34002 18.0895 4.33002 17.0795 4.33002 15.8395V12.5195C4.33002 12.1095 3.99002 11.7695 3.58002 11.7695C3.17002 11.7695 2.83002 12.1095 2.83002 12.5195V15.8395C2.83002 17.9095 4.51002 19.5895 6.58002 19.5895H18.61L16.73 21.4695C16.44 21.7595 16.44 22.2395 16.73 22.5295C16.88 22.6795 17.07 22.7495 17.26 22.7495C17.45 22.7495 17.64 22.6795 17.79 22.5295L20.95 19.3695C21.02 19.2995 21.07 19.2195 21.11 19.1295C21.15 19.0395 21.17 18.9395 21.17 18.8395Z" fill="#292D32"/>
</svg>
