<svg width="20" height="20" viewBox="0 0 20 20" fill="none" xmlns="http://www.w3.org/2000/svg">
<path d="M16.2498 4.53117C16.1647 4.44594 16.0557 4.40341 15.9233 4.40341H13.4944C13.3333 3.61768 13.0303 2.93564 12.5853 2.35802H15.8947C16.0275 2.35802 16.1362 2.31543 16.2216 2.23041C16.3064 2.14523 16.349 2.03623 16.349 1.90369V0.45453C16.349 0.321892 16.3064 0.213086 16.2216 0.127812C16.1361 0.0427365 16.0274 0 15.8946 0H4.07667C3.94403 0 3.83523 0.0427365 3.74995 0.127762C3.66493 0.213036 3.62219 0.321842 3.62219 0.45448V2.34364C3.62219 2.46673 3.66717 2.57325 3.75712 2.6632C3.84707 2.75315 3.95359 2.79812 4.07667 2.79812H6.13633C8.1343 2.79812 9.40327 3.333 9.94297 4.40316H4.07667C3.94403 4.40316 3.83508 4.44569 3.74995 4.53092C3.66493 4.61624 3.62219 4.725 3.62219 4.85764V6.3066C3.62219 6.43914 3.66473 6.54809 3.74995 6.63312C3.83523 6.71844 3.94423 6.76088 4.07667 6.76088H10.1421C9.93377 7.5376 9.44839 8.12934 8.686 8.53656C7.92356 8.94383 6.91763 9.14746 5.66758 9.14746H4.07667C3.95359 9.14746 3.84707 9.19248 3.75712 9.28238C3.66712 9.37239 3.62219 9.47895 3.62219 9.60194V11.4061C3.62219 11.5294 3.66473 11.6335 3.74995 11.7186C5.56802 13.6504 7.92604 16.3537 10.8237 19.8294C10.909 19.9431 11.0274 19.9998 11.1789 19.9998H13.9487C14.1477 19.9998 14.2851 19.9148 14.3607 19.744C14.4553 19.5736 14.4368 19.4126 14.3038 19.261C11.539 15.8708 9.36555 13.333 7.7841 11.6475C9.39396 11.4581 10.7008 10.9372 11.7046 10.0851C12.7083 9.23288 13.319 8.12472 13.537 6.76113H15.9233C16.0557 6.76113 16.1647 6.71864 16.2498 6.63337C16.3351 6.54834 16.3778 6.43938 16.3778 6.30685V4.85803C16.3778 4.72525 16.3351 4.61644 16.2498 4.53117Z" fill="#39973D"/>
</svg>
