<svg width="24" height="24" viewBox="0 0 24 24" fill="none" xmlns="http://www.w3.org/2000/svg">
<path d="M7.257 6.1965L5.78025 4.71975L5.7735 4.71525C5.9145 4.422 6 4.09725 6 3.75C6 2.5095 4.9905 1.5 3.75 1.5C2.5095 1.5 1.5 2.5095 1.5 3.75C1.5 4.9905 2.5095 6 3.75 6C4.0965 6 4.422 5.9145 4.71525 5.7735L4.71975 5.78025L6.1965 7.257C6.51375 6.86925 6.86925 6.51375 7.257 6.1965ZM20.25 18C19.9028 18 19.578 18.0855 19.2847 18.2265L19.2803 18.2197L17.8035 16.743C17.4863 17.1307 17.1307 17.4863 16.743 17.8035L18.2197 19.2803L18.2265 19.2847C18.0793 19.5854 18.0019 19.9153 18 20.25C18 21.4905 19.0095 22.5 20.25 22.5C21.4905 22.5 22.5 21.4905 22.5 20.25C22.5 19.0095 21.4905 18 20.25 18ZM18.75 12C18.75 8.2785 15.7222 5.25 12 5.25C8.27775 5.25 5.25 8.2785 5.25 12C5.25 15.7215 8.27775 18.75 12 18.75C15.7222 18.75 18.75 15.7215 18.75 12ZM13.3545 16.3373L12.4845 17.0723C12.3493 17.1873 12.1775 17.2504 12 17.2504C11.8225 17.2504 11.6507 17.1873 11.5155 17.0723L10.6462 16.3373C8.5875 14.595 7.5 12.3173 7.5 9.75C7.5 9.44325 7.68675 9.168 7.97175 9.05325L11.7218 7.55325C11.9002 7.48275 12.0998 7.48275 12.2782 7.55325L16.0282 9.05325C16.3133 9.168 16.5 9.44325 16.5 9.75C16.5 12.3173 15.4125 14.595 13.3545 16.3373Z" fill="black"/>
<path d="M13.6499 10.05L11.9189 12.3585L11.0302 11.4697C10.961 11.3981 10.8782 11.341 10.7867 11.3017C10.6952 11.2624 10.5968 11.2417 10.4972 11.2408C10.3977 11.2399 10.2989 11.2589 10.2067 11.2966C10.1146 11.3343 10.0308 11.39 9.96039 11.4605C9.88997 11.5309 9.83428 11.6146 9.79657 11.7068C9.75886 11.799 9.73989 11.8977 9.74075 11.9973C9.74162 12.0969 9.76231 12.1953 9.80161 12.2868C9.84092 12.3783 9.89806 12.4611 9.96969 12.5303L11.4697 14.0303C11.5456 14.1063 11.637 14.1652 11.7377 14.2028C11.8383 14.2405 11.9459 14.256 12.0532 14.2484C12.1604 14.2408 12.2647 14.2102 12.359 14.1587C12.4534 14.1072 12.5355 14.036 12.5999 13.95L14.8499 10.95C14.9693 10.7909 15.0205 10.5908 14.9924 10.3939C14.9643 10.197 14.8591 10.0193 14.6999 9.9C14.6211 9.8409 14.5315 9.79791 14.4361 9.77346C14.3407 9.74902 14.2414 9.74361 14.1439 9.75754C13.947 9.78567 13.7693 9.89087 13.6499 10.05Z" fill="black"/>
</svg>
