<svg width="24" height="24" viewBox="0 0 24 24" fill="none" xmlns="http://www.w3.org/2000/svg">
<path d="M18.5 4.11031L13.51 2.24031C12.68 1.93031 11.32 1.93031 10.49 2.24031L5.49997 4.11031C4.34997 4.54031 3.40997 5.90031 3.40997 7.12031V14.5503C3.40997 15.7303 4.18997 17.2803 5.13997 17.9903L9.43997 21.2003C10.85 22.2603 13.17 22.2603 14.58 21.2003L18.88 17.9903C19.83 17.2803 20.61 15.7303 20.61 14.5503V7.12031C20.59 5.90031 19.65 4.54031 18.5 4.11031ZM11.93 7.03031C13.11 7.03031 14.07 7.99031 14.07 9.17031C14.07 10.3303 13.16 11.2603 12.01 11.3003H11.99H11.97C11.95 11.3003 11.93 11.3003 11.91 11.3003C10.71 11.2603 9.80997 10.3303 9.80997 9.17031C9.79997 7.99031 10.76 7.03031 11.93 7.03031ZM14.19 16.3603C13.58 16.7603 12.79 16.9703 12 16.9703C11.21 16.9703 10.41 16.7703 9.80997 16.3603C9.23997 15.9803 8.92997 15.4603 8.91997 14.8903C8.91997 14.3303 9.23997 13.7903 9.80997 13.4103C11.02 12.6103 12.99 12.6103 14.2 13.4103C14.77 13.7903 15.09 14.3103 15.09 14.8803C15.08 15.4403 14.76 15.9803 14.19 16.3603Z" fill="#292D32"/>
</svg>
