<svg width="20" height="20" viewBox="0 0 20 20" fill="none" xmlns="http://www.w3.org/2000/svg">
<g clip-path="url(#clip0_11_11136)">
<path d="M4.5835 6.52667V4.58333C4.5835 3.205 5.70516 2.08333 7.0835 2.08333C8.46183 2.08333 9.5835 3.205 9.5835 4.58333V6.25C9.67016 6.25 9.75183 6.27 9.83683 6.27833C10.4757 5.59124 10.8317 4.68825 10.8335 3.75C10.8335 2.75544 10.4384 1.80161 9.73515 1.09835C9.03188 0.395088 8.07806 0 7.0835 0C6.08893 0 5.13511 0.395088 4.43185 1.09835C3.72858 1.80161 3.3335 2.75544 3.3335 3.75C3.3335 4.85667 3.82183 5.84 4.5835 6.52667Z" fill="black"/>
<path d="M15.8333 9.16634C15.5018 9.16634 15.1839 9.29804 14.9495 9.53246C14.715 9.76688 14.5833 10.0848 14.5833 10.4163V10.6247C14.5833 10.6799 14.5614 10.7329 14.5223 10.772C14.4832 10.8111 14.4303 10.833 14.375 10.833C14.3197 10.833 14.2668 10.8111 14.2277 10.772C14.1886 10.7329 14.1667 10.6799 14.1667 10.6247V9.58301C14.1667 9.25149 14.035 8.93355 13.8006 8.69912C13.5661 8.4647 13.2482 8.33301 12.9167 8.33301C12.5851 8.33301 12.2672 8.4647 12.0328 8.69912C11.7984 8.93355 11.6667 9.25149 11.6667 9.58301V10.6247C11.6667 10.6799 11.6447 10.7329 11.6056 10.772C11.5666 10.8111 11.5136 10.833 11.4583 10.833C11.4031 10.833 11.3501 10.8111 11.311 10.772C11.272 10.7329 11.25 10.6799 11.25 10.6247V8.74967C11.25 8.41815 11.1183 8.10021 10.8839 7.86579C10.6495 7.63137 10.3315 7.49967 10 7.49967C9.66848 7.49967 9.35054 7.63137 9.11612 7.86579C8.8817 8.10021 8.75 8.41815 8.75 8.74967V10.6247C8.75 10.6799 8.72805 10.7329 8.68898 10.772C8.64991 10.8111 8.59692 10.833 8.54167 10.833C8.48641 10.833 8.43342 10.8111 8.39435 10.772C8.35528 10.7329 8.33333 10.6799 8.33333 10.6247V4.58301C8.33333 4.25149 8.20164 3.93354 7.96722 3.69912C7.7328 3.4647 7.41485 3.33301 7.08333 3.33301C6.75181 3.33301 6.43387 3.4647 6.19945 3.69912C5.96503 3.93354 5.83333 4.25149 5.83333 4.58301V12.083C5.72283 12.083 5.61685 12.0391 5.53871 11.961C5.46057 11.8828 5.41667 11.7768 5.41667 11.6663V9.99967H5.005C3.63417 9.99967 2.49917 11.1063 2.5 12.4772C2.50417 16.878 5.7075 19.9997 7.6775 19.9997H12.9167C13.4638 19.9997 14.0057 19.8919 14.5112 19.6825C15.0167 19.4731 15.476 19.1662 15.8629 18.7793C16.2499 18.3924 16.5568 17.933 16.7662 17.4275C16.9756 16.922 17.0833 16.3802 17.0833 15.833V10.4163C17.0833 10.0848 16.9516 9.76688 16.7172 9.53246C16.4828 9.29804 16.1649 9.16634 15.8333 9.16634Z" fill="black"/>
</g>
<defs>
<clipPath id="clip0_11_11136">
<rect width="20" height="20" fill="white"/>
</clipPath>
</defs>
</svg>
