<svg width="24" height="24" viewBox="0 0 24 24" fill="none" xmlns="http://www.w3.org/2000/svg">
<path d="M16.1906 2H7.81061C4.17061 2 2.00061 4.17 2.00061 7.81V16.18C2.00061 19.83 4.17061 22 7.81061 22H16.1806C19.8206 22 21.9906 19.83 21.9906 16.19V7.81C22.0006 4.17 19.8306 2 16.1906 2ZM19.0006 8.24C19.0006 8.79 18.5506 9.24 18.0006 9.24H16.0006C15.5906 9.24 15.2506 9.58 15.2506 9.99C15.2506 10.41 15.5906 10.74 16.0006 10.74H18.0006C18.5506 10.74 19.0006 11.19 19.0006 11.74V12.25C19.0006 12.8 18.5506 13.25 18.0006 13.25H16.0006C15.5906 13.25 15.2506 13.59 15.2506 14C15.2506 14.41 15.5906 14.75 16.0006 14.75H18.0006C18.5506 14.75 19.0006 15.2 19.0006 15.75V16C19.0006 17.66 17.6606 19 16.0006 19H8.00061C6.34061 19 5.00061 17.66 5.00061 16V15.5C5.00061 14.95 5.45061 14.5 6.00061 14.5H7.48061C8.95061 14.5 10.1206 13.24 9.97061 11.74C9.84061 10.44 8.65061 9.5 7.34061 9.5H6.00061C5.45061 9.5 5.00061 9.05 5.00061 8.5V8C5.00061 6.34 6.34061 5 8.00061 5H16.0006C17.6606 5 19.0006 6.34 19.0006 8V8.24ZM5.00061 12C5.00061 11.45 5.45061 11 6.00061 11H7.00061C7.55061 11 8.00061 11.45 8.00061 12C8.00061 12.55 7.55061 13 7.00061 13H6.00061C5.45061 13 5.00061 12.55 5.00061 12Z" fill="#292D32"/>
</svg>
