<svg width="664" height="56" viewBox="0 0 664 56" fill="none" xmlns="http://www.w3.org/2000/svg">
<line x1="0.5" y1="55.5" x2="663.5" y2="55.5" stroke="#E6EAEE" stroke-linecap="round" stroke-linejoin="round"/>
<path d="M2.304 2.088H10.048C11.8613 2.088 13.4933 2.36533 14.944 2.92C16.3947 3.47467 17.632 4.264 18.656 5.288C19.68 6.29067 20.4587 7.496 20.992 8.904C21.5467 10.312 21.824 11.8587 21.824 13.544C21.824 15.2507 21.5467 16.808 20.992 18.216C20.4587 19.624 19.68 20.8293 18.656 21.832C17.632 22.8347 16.3947 23.6133 14.944 24.168C13.4933 24.7227 11.8613 25 10.048 25H2.304V2.088ZM9.856 20.904C11.1147 20.904 12.224 20.7333 13.184 20.392C14.144 20.0293 14.944 19.528 15.584 18.888C16.224 18.248 16.704 17.48 17.024 16.584C17.344 15.6667 17.504 14.6533 17.504 13.544C17.504 12.4347 17.344 11.432 17.024 10.536C16.704 9.61867 16.224 8.84 15.584 8.2C14.944 7.56 14.144 7.06933 13.184 6.728C12.224 6.36533 11.1147 6.184 9.856 6.184H6.624V20.904H9.856ZM39.1713 21.224C38.4459 22.504 37.4646 23.5387 36.2273 24.328C35.0113 25.1173 33.5179 25.512 31.7473 25.512C30.5526 25.512 29.4433 25.3093 28.4193 24.904C27.4166 24.4773 26.5419 23.8907 25.7953 23.144C25.0486 22.3973 24.4619 21.5227 24.0353 20.52C23.6299 19.496 23.4273 18.376 23.4273 17.16C23.4273 16.0293 23.6299 14.9627 24.0353 13.96C24.4406 12.936 25.0059 12.0507 25.7313 11.304C26.4566 10.536 27.3099 9.928 28.2913 9.48C29.2939 9.032 30.3926 8.808 31.5873 8.808C32.8459 8.808 33.9659 9.02133 34.9473 9.448C35.9286 9.85333 36.7499 10.4293 37.4113 11.176C38.0726 11.9013 38.5739 12.7653 38.9153 13.768C39.2566 14.7707 39.4272 15.8587 39.4272 17.032C39.4272 17.1813 39.4272 17.3093 39.4272 17.416C39.4059 17.544 39.3953 17.6613 39.3953 17.768C39.3739 17.8747 39.3633 17.992 39.3633 18.12H27.5553C27.6406 18.76 27.8113 19.3147 28.0673 19.784C28.3446 20.232 28.6753 20.616 29.0593 20.936C29.4646 21.2347 29.9019 21.4587 30.3713 21.608C30.8406 21.736 31.3206 21.8 31.8113 21.8C32.7713 21.8 33.5606 21.5867 34.1793 21.16C34.8193 20.712 35.3206 20.1573 35.6833 19.496L39.1713 21.224ZM35.3633 15.144C35.3419 14.8667 35.2459 14.5573 35.0753 14.216C34.9259 13.8747 34.6913 13.5547 34.3713 13.256C34.0726 12.9573 33.6886 12.712 33.2193 12.52C32.7713 12.328 32.2273 12.232 31.5873 12.232C30.6913 12.232 29.9019 12.488 29.2193 13C28.5366 13.512 28.0566 14.2267 27.7793 15.144H35.3633ZM42.1045 25V2.088H46.2965V25H42.1045ZM52.2218 7.048C51.8591 7.048 51.5071 6.984 51.1658 6.856C50.8458 6.70667 50.5578 6.51467 50.3018 6.28C50.0671 6.024 49.8751 5.736 49.7258 5.416C49.5978 5.096 49.5338 4.744 49.5338 4.36C49.5338 3.976 49.5978 3.624 49.7258 3.304C49.8751 2.984 50.0671 2.70667 50.3018 2.472C50.5578 2.216 50.8458 2.024 51.1658 1.896C51.5071 1.74667 51.8591 1.672 52.2218 1.672C52.9684 1.672 53.6084 1.93867 54.1418 2.472C54.6751 2.984 54.9418 3.61333 54.9418 4.36C54.9418 5.10667 54.6751 5.74667 54.1418 6.28C53.6084 6.792 52.9684 7.048 52.2218 7.048ZM50.1418 25V9.32H54.3338V25H50.1418ZM56.503 9.32H61.271L65.175 19.304H65.399L69.335 9.32H74.071L67.319 25H63.191L56.503 9.32ZM90.3588 21.224C89.6334 22.504 88.6521 23.5387 87.4148 24.328C86.1988 25.1173 84.7054 25.512 82.9348 25.512C81.7401 25.512 80.6308 25.3093 79.6068 24.904C78.6041 24.4773 77.7294 23.8907 76.9828 23.144C76.2361 22.3973 75.6494 21.5227 75.2228 20.52C74.8174 19.496 74.6148 18.376 74.6148 17.16C74.6148 16.0293 74.8174 14.9627 75.2228 13.96C75.6281 12.936 76.1934 12.0507 76.9188 11.304C77.6441 10.536 78.4974 9.928 79.4788 9.48C80.4814 9.032 81.5801 8.808 82.7748 8.808C84.0334 8.808 85.1534 9.02133 86.1348 9.448C87.1161 9.85333 87.9374 10.4293 88.5988 11.176C89.2601 11.9013 89.7614 12.7653 90.1028 13.768C90.4441 14.7707 90.6147 15.8587 90.6147 17.032C90.6147 17.1813 90.6147 17.3093 90.6147 17.416C90.5934 17.544 90.5828 17.6613 90.5828 17.768C90.5614 17.8747 90.5508 17.992 90.5508 18.12H78.7428C78.8281 18.76 78.9988 19.3147 79.2548 19.784C79.5321 20.232 79.8628 20.616 80.2468 20.936C80.6521 21.2347 81.0894 21.4587 81.5588 21.608C82.0281 21.736 82.5081 21.8 82.9988 21.8C83.9588 21.8 84.7481 21.5867 85.3668 21.16C86.0068 20.712 86.5081 20.1573 86.8708 19.496L90.3588 21.224ZM86.5508 15.144C86.5294 14.8667 86.4334 14.5573 86.2628 14.216C86.1134 13.8747 85.8788 13.5547 85.5588 13.256C85.2601 12.9573 84.8761 12.712 84.4068 12.52C83.9588 12.328 83.4148 12.232 82.7748 12.232C81.8788 12.232 81.0894 12.488 80.4068 13C79.7241 13.512 79.2441 14.2267 78.9668 15.144H86.5508ZM93.292 9.32H97.228V11.496H97.484C97.676 11.112 97.932 10.76 98.252 10.44C98.572 10.12 98.924 9.84267 99.308 9.608C99.7133 9.37333 100.14 9.192 100.588 9.064C101.057 8.936 101.516 8.872 101.964 8.872C102.519 8.872 102.988 8.92533 103.372 9.032C103.777 9.13867 104.119 9.27733 104.396 9.448L103.276 13.256C103.02 13.128 102.732 13.032 102.412 12.968C102.113 12.8827 101.74 12.84 101.292 12.84C100.716 12.84 100.193 12.9573 99.724 13.192C99.2547 13.4053 98.8493 13.7147 98.508 14.12C98.188 14.5253 97.932 15.0053 97.74 15.56C97.5693 16.0933 97.484 16.68 97.484 17.32V25H93.292V9.32ZM111.564 24.232L104.972 9.32H109.74L113.708 18.824H113.932L117.74 9.32H122.412L112.588 31.912H108.076L111.564 24.232Z" fill="#292D32"/>
<line x1="139.5" y1="3.5" x2="139.5" y2="24.5" stroke="#E6EAEE"/>
<path d="M156.152 8.544H160.632C161.123 8.544 161.581 8.624 162.008 8.784C162.435 8.93333 162.803 9.14667 163.112 9.424C163.432 9.69067 163.683 10.0053 163.864 10.368C164.045 10.7307 164.136 11.12 164.136 11.536C164.136 12.144 163.987 12.656 163.688 13.072C163.4 13.4773 163.037 13.7867 162.6 14V14.128C163.187 14.3413 163.656 14.6773 164.008 15.136C164.371 15.584 164.552 16.144 164.552 16.816C164.552 17.3067 164.451 17.7493 164.248 18.144C164.056 18.528 163.789 18.8587 163.448 19.136C163.107 19.4133 162.707 19.6267 162.248 19.776C161.8 19.9253 161.315 20 160.792 20H156.152V8.544ZM160.472 13.216C160.973 13.216 161.357 13.0827 161.624 12.816C161.901 12.5387 162.04 12.2133 162.04 11.84C162.04 11.4667 161.907 11.1467 161.64 10.88C161.373 10.6133 161.005 10.48 160.536 10.48H158.312V13.216H160.472ZM160.712 18.016C161.256 18.016 161.672 17.8827 161.96 17.616C162.248 17.3387 162.392 16.9867 162.392 16.56C162.392 16.1333 162.243 15.7813 161.944 15.504C161.656 15.216 161.224 15.072 160.648 15.072H158.312V18.016H160.712ZM169.671 11.904C170.279 11.904 170.833 12.0107 171.335 12.224C171.847 12.4267 172.284 12.7147 172.647 13.088C173.02 13.4507 173.308 13.888 173.51 14.4C173.724 14.912 173.831 15.472 173.831 16.08C173.831 16.688 173.724 17.248 173.51 17.76C173.308 18.272 173.02 18.7147 172.647 19.088C172.284 19.4507 171.847 19.7387 171.335 19.952C170.833 20.1547 170.279 20.256 169.671 20.256C169.063 20.256 168.503 20.1547 167.991 19.952C167.489 19.7387 167.052 19.4507 166.679 19.088C166.316 18.7147 166.028 18.272 165.815 17.76C165.612 17.248 165.511 16.688 165.511 16.08C165.511 15.472 165.612 14.912 165.815 14.4C166.028 13.888 166.316 13.4507 166.679 13.088C167.052 12.7147 167.489 12.4267 167.991 12.224C168.503 12.0107 169.063 11.904 169.671 11.904ZM169.671 18.32C169.937 18.32 170.193 18.272 170.439 18.176C170.695 18.0693 170.919 17.92 171.111 17.728C171.303 17.536 171.452 17.3013 171.559 17.024C171.676 16.7467 171.735 16.432 171.735 16.08C171.735 15.728 171.676 15.4133 171.559 15.136C171.452 14.8587 171.303 14.624 171.111 14.432C170.919 14.24 170.695 14.096 170.439 14C170.193 13.8933 169.937 13.84 169.671 13.84C169.393 13.84 169.132 13.8933 168.887 14C168.641 14.096 168.423 14.24 168.231 14.432C168.039 14.624 167.884 14.8587 167.767 15.136C167.66 15.4133 167.607 15.728 167.607 16.08C167.607 16.432 167.66 16.7467 167.767 17.024C167.884 17.3013 168.039 17.536 168.231 17.728C168.423 17.92 168.641 18.0693 168.887 18.176C169.132 18.272 169.393 18.32 169.671 18.32ZM175.099 20V8.544H177.195V20H175.099ZM184.752 19.056H184.624C184.432 19.3867 184.133 19.6693 183.728 19.904C183.322 20.1387 182.821 20.256 182.224 20.256C181.722 20.256 181.242 20.1547 180.784 19.952C180.336 19.7387 179.936 19.4507 179.584 19.088C179.242 18.7147 178.97 18.272 178.768 17.76C178.565 17.248 178.464 16.688 178.464 16.08C178.464 15.472 178.565 14.912 178.768 14.4C178.97 13.888 179.242 13.4507 179.584 13.088C179.936 12.7147 180.336 12.4267 180.784 12.224C181.242 12.0107 181.722 11.904 182.224 11.904C182.821 11.904 183.322 12.0213 183.728 12.256C184.133 12.4907 184.432 12.7733 184.624 13.104H184.752L184.624 11.984V8.544H186.72V20H184.752V19.056ZM182.656 18.32C182.933 18.32 183.194 18.272 183.44 18.176C183.696 18.0693 183.92 17.92 184.112 17.728C184.304 17.536 184.458 17.3013 184.576 17.024C184.693 16.7467 184.752 16.432 184.752 16.08C184.752 15.728 184.693 15.4133 184.576 15.136C184.458 14.8587 184.304 14.624 184.112 14.432C183.92 14.24 183.696 14.096 183.44 14C183.194 13.8933 182.933 13.84 182.656 13.84C182.378 13.84 182.112 13.8933 181.856 14C181.61 14.1067 181.392 14.256 181.2 14.448C181.008 14.64 180.853 14.8747 180.736 15.152C180.618 15.4293 180.56 15.7387 180.56 16.08C180.56 16.4213 180.618 16.7307 180.736 17.008C180.853 17.2853 181.008 17.52 181.2 17.712C181.392 17.904 181.61 18.0533 181.856 18.16C182.112 18.2667 182.378 18.32 182.656 18.32Z" fill="#292D32"/>
</svg>
