<svg width="664" height="56" viewBox="0 0 664 56" fill="none" xmlns="http://www.w3.org/2000/svg">
<line x1="0.5" y1="55.5" x2="663.5" y2="55.5" stroke="#E6EAEE" stroke-linecap="round" stroke-linejoin="round"/>
<path d="M22.336 21.32C21.2053 22.6853 19.872 23.7307 18.336 24.456C16.8 25.16 15.0827 25.512 13.184 25.512C11.4773 25.512 9.888 25.2027 8.416 24.584C6.96533 23.9653 5.70667 23.1227 4.64 22.056C3.57333 20.9893 2.73067 19.7307 2.112 18.28C1.49333 16.808 1.184 15.2293 1.184 13.544C1.184 11.8587 1.49333 10.2907 2.112 8.84C2.73067 7.368 3.57333 6.09867 4.64 5.032C5.70667 3.96533 6.96533 3.12267 8.416 2.504C9.888 1.88533 11.4773 1.576 13.184 1.576C15.0187 1.576 16.6293 1.896 18.016 2.536C19.424 3.176 20.672 4.104 21.76 5.32L18.72 8.264C18.0373 7.47467 17.248 6.84533 16.352 6.376C15.4773 5.90667 14.432 5.672 13.216 5.672C12.1493 5.672 11.1467 5.864 10.208 6.248C9.26933 6.61067 8.448 7.13333 7.744 7.816C7.06133 8.49867 6.51733 9.33067 6.112 10.312C5.70667 11.272 5.504 12.3493 5.504 13.544C5.504 14.7387 5.70667 15.8267 6.112 16.808C6.51733 17.768 7.06133 18.5893 7.744 19.272C8.448 19.9547 9.26933 20.488 10.208 20.872C11.1467 21.2347 12.1493 21.416 13.216 21.416C14.496 21.416 15.6267 21.16 16.608 20.648C17.6107 20.1147 18.496 19.368 19.264 18.408L22.336 21.32ZM34.331 23.336H34.075C33.5843 23.9333 32.987 24.4453 32.283 24.872C31.6003 25.2987 30.715 25.512 29.627 25.512C28.8163 25.512 28.0483 25.3733 27.323 25.096C26.619 24.84 26.0003 24.4773 25.467 24.008C24.9337 23.5387 24.5177 22.9733 24.219 22.312C23.9203 21.6507 23.771 20.9253 23.771 20.136C23.771 19.3253 23.931 18.6 24.251 17.96C24.571 17.2987 25.019 16.7333 25.595 16.264C26.171 15.7947 26.843 15.4427 27.611 15.208C28.4003 14.952 29.2537 14.824 30.171 14.824C31.195 14.824 32.0377 14.9093 32.699 15.08C33.3603 15.2293 33.9043 15.3893 34.331 15.56V15.08C34.331 14.248 34.0003 13.5653 33.339 13.032C32.6777 12.4773 31.8563 12.2 30.875 12.2C29.4243 12.2 28.1977 12.808 27.195 14.024L24.155 11.944C25.819 9.85333 28.091 8.808 30.971 8.808C33.403 8.808 35.259 9.384 36.539 10.536C37.819 11.6667 38.459 13.352 38.459 15.592V25H34.331V23.336ZM34.331 18.632C33.8403 18.3973 33.3283 18.216 32.795 18.088C32.283 17.9387 31.7177 17.864 31.099 17.864C30.0963 17.864 29.3177 18.088 28.763 18.536C28.2297 18.9627 27.963 19.496 27.963 20.136C27.963 20.776 28.219 21.288 28.731 21.672C29.2643 22.056 29.8723 22.248 30.555 22.248C31.1097 22.248 31.6217 22.152 32.091 21.96C32.5603 21.7467 32.955 21.48 33.275 21.16C33.6163 20.8187 33.8723 20.4347 34.043 20.008C34.235 19.56 34.331 19.1013 34.331 18.632ZM41.792 25V2.088H45.984V25H41.792ZM49.5733 25V2.088H53.7653V25H49.5733Z" fill="#292D32"/>
<line x1="72.5" y1="3.5" x2="72.5" y2="24.5" stroke="#E6EAEE"/>
<path d="M89.152 8.544H93.632C94.1227 8.544 94.5813 8.624 95.008 8.784C95.4347 8.93333 95.8027 9.14667 96.112 9.424C96.432 9.69067 96.6827 10.0053 96.864 10.368C97.0453 10.7307 97.136 11.12 97.136 11.536C97.136 12.144 96.9867 12.656 96.688 13.072C96.4 13.4773 96.0373 13.7867 95.6 14V14.128C96.1867 14.3413 96.656 14.6773 97.008 15.136C97.3707 15.584 97.552 16.144 97.552 16.816C97.552 17.3067 97.4507 17.7493 97.248 18.144C97.056 18.528 96.7893 18.8587 96.448 19.136C96.1067 19.4133 95.7067 19.6267 95.248 19.776C94.8 19.9253 94.3147 20 93.792 20H89.152V8.544ZM93.472 13.216C93.9733 13.216 94.3573 13.0827 94.624 12.816C94.9013 12.5387 95.04 12.2133 95.04 11.84C95.04 11.4667 94.9067 11.1467 94.64 10.88C94.3733 10.6133 94.0053 10.48 93.536 10.48H91.312V13.216H93.472ZM93.712 18.016C94.256 18.016 94.672 17.8827 94.96 17.616C95.248 17.3387 95.392 16.9867 95.392 16.56C95.392 16.1333 95.2427 15.7813 94.944 15.504C94.656 15.216 94.224 15.072 93.648 15.072H91.312V18.016H93.712ZM102.671 11.904C103.279 11.904 103.833 12.0107 104.335 12.224C104.847 12.4267 105.284 12.7147 105.647 13.088C106.02 13.4507 106.308 13.888 106.51 14.4C106.724 14.912 106.831 15.472 106.831 16.08C106.831 16.688 106.724 17.248 106.51 17.76C106.308 18.272 106.02 18.7147 105.647 19.088C105.284 19.4507 104.847 19.7387 104.335 19.952C103.833 20.1547 103.279 20.256 102.671 20.256C102.063 20.256 101.503 20.1547 100.991 19.952C100.489 19.7387 100.052 19.4507 99.6785 19.088C99.3158 18.7147 99.0278 18.272 98.8145 17.76C98.6118 17.248 98.5105 16.688 98.5105 16.08C98.5105 15.472 98.6118 14.912 98.8145 14.4C99.0278 13.888 99.3158 13.4507 99.6785 13.088C100.052 12.7147 100.489 12.4267 100.991 12.224C101.503 12.0107 102.063 11.904 102.671 11.904ZM102.671 18.32C102.937 18.32 103.193 18.272 103.439 18.176C103.695 18.0693 103.919 17.92 104.111 17.728C104.303 17.536 104.452 17.3013 104.559 17.024C104.676 16.7467 104.735 16.432 104.735 16.08C104.735 15.728 104.676 15.4133 104.559 15.136C104.452 14.8587 104.303 14.624 104.111 14.432C103.919 14.24 103.695 14.096 103.439 14C103.193 13.8933 102.937 13.84 102.671 13.84C102.393 13.84 102.132 13.8933 101.887 14C101.641 14.096 101.423 14.24 101.231 14.432C101.039 14.624 100.884 14.8587 100.767 15.136C100.66 15.4133 100.607 15.728 100.607 16.08C100.607 16.432 100.66 16.7467 100.767 17.024C100.884 17.3013 101.039 17.536 101.231 17.728C101.423 17.92 101.641 18.0693 101.887 18.176C102.132 18.272 102.393 18.32 102.671 18.32ZM108.099 20V8.544H110.195V20H108.099ZM117.752 19.056H117.624C117.432 19.3867 117.133 19.6693 116.728 19.904C116.322 20.1387 115.821 20.256 115.224 20.256C114.722 20.256 114.242 20.1547 113.784 19.952C113.336 19.7387 112.936 19.4507 112.584 19.088C112.242 18.7147 111.97 18.272 111.768 17.76C111.565 17.248 111.464 16.688 111.464 16.08C111.464 15.472 111.565 14.912 111.768 14.4C111.97 13.888 112.242 13.4507 112.584 13.088C112.936 12.7147 113.336 12.4267 113.784 12.224C114.242 12.0107 114.722 11.904 115.224 11.904C115.821 11.904 116.322 12.0213 116.728 12.256C117.133 12.4907 117.432 12.7733 117.624 13.104H117.752L117.624 11.984V8.544H119.72V20H117.752V19.056ZM115.656 18.32C115.933 18.32 116.194 18.272 116.44 18.176C116.696 18.0693 116.92 17.92 117.112 17.728C117.304 17.536 117.458 17.3013 117.576 17.024C117.693 16.7467 117.752 16.432 117.752 16.08C117.752 15.728 117.693 15.4133 117.576 15.136C117.458 14.8587 117.304 14.624 117.112 14.432C116.92 14.24 116.696 14.096 116.44 14C116.194 13.8933 115.933 13.84 115.656 13.84C115.378 13.84 115.112 13.8933 114.856 14C114.61 14.1067 114.392 14.256 114.2 14.448C114.008 14.64 113.853 14.8747 113.736 15.152C113.618 15.4293 113.56 15.7387 113.56 16.08C113.56 16.4213 113.618 16.7307 113.736 17.008C113.853 17.2853 114.008 17.52 114.2 17.712C114.392 17.904 114.61 18.0533 114.856 18.16C115.112 18.2667 115.378 18.32 115.656 18.32Z" fill="#292D32"/>
</svg>
