<svg width="20" height="20" viewBox="0 0 20 20" fill="none" xmlns="http://www.w3.org/2000/svg">
<g clip-path="url(#clip0_11_11131)">
<path d="M20.0001 4.48815V3.83301H17.1831V4.48815H18.264V15.5127H17.1831V16.1678H20.0001V15.5127H18.9192V4.48815H20.0001Z" fill="#333E48"/>
<path d="M0.121549 13.5013L3.41859 6.05576C3.64846 5.54234 4.0672 5.23145 4.6349 5.23145H4.75651C5.32385 5.23145 5.72936 5.54228 5.959 6.05576L9.25616 13.5013C9.32372 13.6499 9.36436 13.785 9.36436 13.9202C9.36436 14.4742 8.93191 14.9201 8.37785 14.9201C7.89142 14.9201 7.56706 14.6364 7.37794 14.2039L6.74292 12.7176H2.58098L1.91884 14.2716C1.74314 14.6769 1.3919 14.9201 0.959451 14.9201C0.418746 14.9201 0 14.4877 0 13.9472C0 13.7985 0.0539824 13.6499 0.121549 13.5013ZM5.97264 10.8798L4.66183 7.75838L3.35114 10.8798H5.97264ZM10.3502 12.758V12.731C10.3502 11.15 11.5529 10.4203 13.269 10.4203C13.9987 10.4203 14.5258 10.5419 15.0393 10.7177V10.596C15.0393 9.74468 14.5122 9.27183 13.4852 9.27183C12.9177 9.27183 12.4583 9.35286 12.0664 9.47453C11.9449 9.51505 11.8637 9.52851 11.769 9.52851C11.2962 9.52851 10.9178 9.16369 10.9178 8.69079C10.9178 8.32591 11.1475 8.01512 11.4717 7.89346C12.1203 7.65024 12.8231 7.51511 13.7825 7.51511C14.904 7.51511 15.7148 7.81237 16.2283 8.32585C16.7688 8.86632 17.012 9.66364 17.012 10.6366V13.9336C17.012 14.4877 16.5661 14.92 16.0121 14.92C15.4175 14.92 15.0257 14.5012 15.0257 14.0687V14.0552C14.5257 14.6092 13.8364 14.974 12.8366 14.974C11.4717 14.9741 10.3502 14.1905 10.3502 12.758ZM15.0661 12.2851V11.9203C14.7148 11.7581 14.2554 11.65 13.7555 11.65C12.877 11.65 12.3366 12.0014 12.3366 12.6499V12.677C12.3366 13.231 12.7961 13.5553 13.4581 13.5553C14.4175 13.5553 15.0661 13.0284 15.0661 12.2851Z" fill="#1E252B"/>
</g>
<defs>
<clipPath id="clip0_11_11131">
<rect width="20" height="20" fill="white"/>
</clipPath>
</defs>
</svg>
