<svg width="24" height="24" viewBox="0 0 24 24" fill="none" xmlns="http://www.w3.org/2000/svg">
<path d="M19.85 12.9398C19.85 13.7398 20.5 14.3998 21.3 14.3998C21.68 14.3998 22 14.7098 22 15.0898C22 18.9298 20.84 20.0898 17 20.0898H11.75V18.4998C11.75 18.1098 11.45 17.7898 11.07 17.7598C11.05 17.7498 11.02 17.7498 11 17.7498C10.59 17.7498 10.25 18.0898 10.25 18.4998V20.0898H8.48997C6.60997 20.0898 5.63997 18.6798 4.75997 16.5498L4.58997 16.1298C4.44997 15.7698 4.61997 15.3598 4.97997 15.2198C5.34997 15.0798 5.63997 14.7898 5.78997 14.4098C5.94997 14.0398 5.94997 13.6298 5.79997 13.2598C5.47997 12.4898 4.59997 12.1198 3.81997 12.4298C3.64997 12.5098 3.44997 12.5098 3.27997 12.4298C3.10997 12.3598 2.97997 12.2198 2.89997 12.0398L2.74997 11.6398C1.25997 8.01981 1.90997 6.46981 5.52997 4.96981L7.97997 3.95981C8.33997 3.80981 8.74997 3.97981 8.88997 4.33981L11.07 9.08981C10.66 9.08981 10.25 9.41981 10.25 9.82981V14.1698C10.25 14.5798 10.59 14.9198 11 14.9198C11.02 14.9198 11.05 14.9198 11.07 14.9098C11.45 14.8798 11.75 14.5598 11.75 14.1698V9.82981C11.75 9.43981 11.45 9.11981 11.07 9.08981V4.92981H17C20.84 4.92981 22 6.08981 22 9.92981V10.7798C22 11.1698 21.68 11.4798 21.3 11.4798C20.5 11.4798 19.85 12.1298 19.85 12.9398Z" fill="#292D32"/>
</svg>
