<svg width="24" height="24" viewBox="0 0 24 24" fill="none" xmlns="http://www.w3.org/2000/svg">
<path d="M1.23047 21.6817L1.99047 20.9217C1.59047 20.3217 1.36047 19.6017 1.36047 18.8317C1.36047 16.7217 3.07047 15.0117 5.18047 15.0117C7.29047 15.0117 9.00047 16.7117 9.00047 18.8217C9.00047 20.9317 7.29047 22.6417 5.18047 22.6417C4.41047 22.6417 3.69047 22.4117 3.09047 22.0117L2.33047 22.7717C2.17047 22.9217 1.97047 23.0017 1.77047 23.0017C1.57047 23.0017 1.37047 22.9217 1.22047 22.7717C0.920469 22.4717 0.920469 21.9817 1.23047 21.6817Z" fill="#292D32"/>
<path d="M21.5006 12.5H19.0006C17.9006 12.5 17.0006 13.4 17.0006 14.5C17.0006 15.6 17.9006 16.5 19.0006 16.5H21.5006C21.7806 16.5 22.0006 16.28 22.0006 16V13C22.0006 12.72 21.7806 12.5 21.5006 12.5Z" fill="#292D32"/>
<path d="M16.5306 5.40016C16.8306 5.69016 16.5806 6.14016 16.1606 6.14016L7.88057 6.13016C7.40057 6.13016 7.16057 5.55016 7.50057 5.21016L9.25057 3.45016C10.7306 1.98016 13.1206 1.98016 14.6006 3.45016L16.4906 5.36016C16.5006 5.37016 16.5206 5.39016 16.5306 5.40016Z" fill="#292D32"/>
<path d="M21.8706 18.66C21.2606 20.72 19.5006 22 17.1006 22H10.6006C10.2106 22 9.9606 21.57 10.1206 21.21C10.4206 20.51 10.6106 19.72 10.6106 19C10.6106 15.97 8.1406 13.5 5.1106 13.5C4.3506 13.5 3.6106 13.66 2.9306 13.96C2.5606 14.12 2.1106 13.87 2.1106 13.47V12C2.1106 9.28 3.7506 7.38 6.3006 7.06C6.5506 7.02 6.8206 7 7.1006 7H17.1006C17.3606 7 17.6106 7.01 17.8506 7.05C19.8706 7.28 21.3306 8.51 21.8706 10.34C21.9706 10.67 21.7306 11 21.3906 11H19.1006C16.9306 11 15.2106 12.98 15.6806 15.23C16.0106 16.87 17.5306 18 19.2006 18H21.3906C21.7406 18 21.9706 18.34 21.8706 18.66Z" fill="#292D32"/>
</svg>
